<?xml version="1.0" encoding="UTF-8"?>
<!DOCTYPE svg PUBLIC "-//W3C//DTD SVG 1.1//EN" "http://www.w3.org/Graphics/SVG/1.1/DTD/svg11.dtd">
<!-- Creator: CorelDRAW X7 -->
<svg xmlns="http://www.w3.org/2000/svg" xml:space="preserve" width="503px" height="590px" version="1.1" style="shape-rendering:geometricPrecision; text-rendering:geometricPrecision; image-rendering:optimizeQuality; fill-rule:evenodd; clip-rule:evenodd"
viewBox="0 0 380 445"
 xmlns:xlink="http://www.w3.org/1999/xlink">
 <defs>
  <style type="text/css">
   <![CDATA[
    .fil0 {fill:#EEEDFA}
   ]]>
  </style>
 </defs>
 <g id="Layer_x0020_1">
  <metadata id="CorelCorpID_0Corel-Layer"/>
  <path id="box.svg" class="fil0" d="M377 125l0 3 3 0 0 -3 -3 0zm0 -14l0 2 3 0 0 -2 -3 0zm0 -5l0 3 3 0 0 -3 -3 0zm0 -10l0 3 3 0 0 -3 -3 0zm0 -19l0 3 3 0 0 -3 -3 0zm0 -10l0 3 3 0 0 -3 -3 0 0 0zm0 -5l0 3 3 0 0 -3 -3 0zm0 -4l0 3 3 0 0 -3 -3 0zm0 -5l0 3 3 0 0 -3 -3 0zm0 -5l0 3 3 0 0 -3 -3 0zm0 -5l0 3 3 0 0 -3 -3 0zm0 -5l0 3 3 0 0 -3 -3 0zm0 -4l0 3 3 0 0 -3 -3 0zm0 -5l0 3 3 0 0 -3 -3 0zm0 -5l0 3 3 0 0 -3 -3 0zm0 -5l0 3 3 0 0 -3 -3 0zm0 -5l0 3 3 0 0 -3 -3 0 0 0zm0 -4l0 3 3 0 0 -3 -3 0 0 0zm0 -5l0 3 3 0 0 -3 -3 0 0 0zm0 -5l0 3 3 0 0 -3 -3 0zm-5 120l0 3 3 0 0 -3 -3 0zm0 -9l0 2 3 0 0 -2 -3 0zm0 -53l0 3 3 0 0 -3 -3 0zm0 -5l0 3 3 0 0 -3 -3 0zm0 -5l0 3 3 0 0 -3 -3 0zm0 -5l0 3 3 0 0 -3 -3 0zm0 -5l0 3 3 0 0 -3 -3 0zm0 -4l0 3 3 0 0 -3 -3 0zm0 -5l0 3 3 0 0 -3 -3 0zm0 -5l0 3 3 0 0 -3 -3 0zm0 -5l0 3 3 0 0 -3 -3 0zm0 -5l0 3 3 0 0 -3 -3 0 0 0zm0 -4l0 3 3 0 0 -3 -3 0 0 0zm0 -5l0 3 3 0 0 -3 -3 0 0 0zm0 -5l0 3 3 0 0 -3 -3 0zm-4 216l0 3 3 0 0 -3 -3 0zm0 -5l0 3 3 0 0 -3 -3 0zm0 -4l0 3 3 0 0 -3 -3 0zm0 -5l0 3 3 0 0 -3 -3 0zm0 -10l0 3 3 0 0 -3 -3 0zm0 -5l0 3 3 0 0 -3 -3 0zm0 -9l0 3 3 0 0 -3 -3 0zm0 -15l0 3 3 0 0 -3 -3 0zm0 -9l0 3 3 0 0 -3 -3 0zm0 -5l0 3 3 0 0 -3 -3 0zm0 -10l0 3 3 0 0 -3 -3 0zm0 -9l0 3 3 0 0 -3 -3 0zm0 -19l0 2 3 0 0 -2 -3 0zm0 -5l0 3 3 0 0 -3 -3 0zm0 -5l0 3 3 0 0 -3 -3 0zm0 -5l0 3 3 0 0 -3 -3 0zm0 -5l0 3 3 0 0 -3 -3 0zm0 -4l0 2 3 0 0 -2 -3 0zm0 -5l0 3 3 0 0 -3 -3 0zm0 -5l0 3 3 0 0 -3 -3 0zm0 -10l0 3 3 0 0 -3 -3 0 0 0zm0 -5l0 3 3 0 0 -3 -3 0zm0 -4l0 3 3 0 0 -3 -3 0zm0 -15l0 3 3 0 0 -3 -3 0zm0 -5l0 3 3 0 0 -3 -3 0zm0 -4l0 3 3 0 0 -3 -3 0zm0 -5l0 3 3 0 0 -3 -3 0zm0 -5l0 3 3 0 0 -3 -3 0zm0 -5l0 3 3 0 0 -3 -3 0zm0 -5l0 3 3 0 0 -3 -3 0 0 0zm0 -4l0 3 3 0 0 -3 -3 0 0 0zm0 -5l0 3 3 0 0 -3 -3 0 0 0zm0 -5l0 3 3 0 0 -3 -3 0zm-5 115l0 3 3 0 0 -3 -3 0zm0 -9l0 3 3 0 0 -3 -3 0zm0 -5l0 3 3 0 0 -3 -3 0zm0 -5l0 3 3 0 0 -3 -3 0zm0 -9l0 2 3 0 0 -2 -3 0zm0 -5l0 3 3 0 0 -3 -3 0zm0 -24l0 3 3 0 0 -3 -3 0zm0 -5l0 3 3 0 0 -3 -3 0zm0 -5l0 3 3 0 0 -3 -3 0zm0 -5l0 3 3 0 0 -3 -3 0zm0 -5l0 3 3 0 0 -3 -3 0zm0 -4l0 3 3 0 0 -3 -3 0zm0 -5l0 3 3 0 0 -3 -3 0zm0 -5l0 3 3 0 0 -3 -3 0zm0 -5l0 3 3 0 0 -3 -3 0zm0 -5l0 3 3 0 0 -3 -3 0 0 0zm0 -4l0 3 3 0 0 -3 -3 0 0 0zm0 -5l0 3 3 0 0 -3 -3 0 0 0zm-4 322l0 3 3 0 0 -3 -3 0zm0 -15l0 3 3 0 0 -3 -3 0zm0 -4l0 2 3 0 0 -2 -3 0zm0 -24l0 2 3 0 0 -2 -3 0zm0 -15l0 3 3 0 0 -3 -3 0zm0 -5l0 3 3 0 0 -3 -3 0zm0 -9l0 3 3 0 0 -3 -3 0zm0 -5l0 3 3 0 0 -3 -3 0zm0 -10l0 3 3 0 0 -3 -3 0zm0 -5l0 3 3 0 0 -3 -3 0zm0 -4l0 3 3 0 0 -3 -3 0zm0 -10l0 3 3 0 0 -3 -3 0zm0 -5l0 3 3 0 0 -3 -3 0zm0 -9l0 3 3 0 0 -3 -3 0zm0 -10l0 3 3 0 0 -3 -3 0zm0 -5l0 3 3 0 0 -3 -3 0zm0 -5l0 3 3 0 0 -3 -3 0zm0 -14l0 3 3 0 0 -3 -3 0zm0 -14l0 3 3 0 0 -3 -3 0zm0 -5l0 3 3 0 0 -3 -3 0zm0 -10l0 3 3 0 0 -3 -3 0zm0 -14l0 3 3 0 0 -3 -3 0zm0 -15l0 3 3 0 0 -3 -3 0zm0 -19l0 3 3 0 0 -3 -3 0zm0 -19l0 3 3 0 0 -3 -3 0zm0 -5l0 3 3 0 0 -3 -3 0zm0 -5l0 3 3 0 0 -3 -3 0 0 0zm0 -5l0 3 3 0 0 -3 -3 0zm0 -4l0 3 3 0 0 -3 -3 0zm0 -5l0 3 3 0 0 -3 -3 0zm0 -5l0 3 3 0 0 -3 -3 0zm0 -5l0 3 3 0 0 -3 -3 0zm0 -5l0 3 3 0 0 -3 -3 0zm0 -4l0 3 3 0 0 -3 -3 0zm0 -5l0 3 3 0 0 -3 -3 0zm0 -5l0 3 3 0 0 -3 -3 0zm0 -5l0 3 3 0 0 -3 -3 0zm0 -5l0 3 3 0 0 -3 -3 0 0 0zm0 -4l0 3 3 0 0 -3 -3 0 0 0zm0 -5l0 3 3 0 0 -3 -3 0 0 0zm0 -5l0 3 3 0 0 -3 -3 0zm-5 284l0 2 3 0 0 -2 -3 0zm0 -5l0 3 3 0 0 -3 -3 0zm0 -5l0 3 3 0 0 -3 -3 0zm0 -34l0 3 3 0 0 -3 -3 0zm0 -5l0 3 3 0 0 -3 -3 0zm0 -9l0 3 3 0 0 -3 -3 0zm0 -15l0 3 3 0 0 -3 -3 0zm0 -19l0 3 3 0 0 -3 -3 0zm0 -9l0 3 3 0 0 -3 -3 0zm0 -10l0 3 3 0 0 -3 -3 0zm0 -5l0 3 3 0 0 -3 -3 0zm0 -5l0 3 3 0 0 -3 -3 0zm0 -4l0 3 3 0 0 -3 -3 0zm0 -39l0 3 3 0 0 -3 -3 0zm0 -5l0 3 3 0 0 -3 -3 0zm0 -4l0 2 3 0 0 -2 -3 0zm0 -5l0 3 3 0 0 -3 -3 0zm0 -5l0 3 3 0 0 -3 -3 0zm0 -5l0 3 3 0 0 -3 -3 0zm0 -5l0 3 3 0 0 -3 -3 0zm0 -4l0 2 3 0 0 -2 -3 0zm0 -5l0 3 3 0 0 -3 -3 0zm0 -5l0 3 3 0 0 -3 -3 0zm0 -5l0 3 3 0 0 -3 -3 0zm0 -5l0 3 3 0 0 -3 -3 0 0 0zm0 -5l0 3 3 0 0 -3 -3 0zm0 -4l0 3 3 0 0 -3 -3 0zm0 -5l0 3 3 0 0 -3 -3 0zm0 -5l0 3 3 0 0 -3 -3 0zm0 -5l0 3 3 0 0 -3 -3 0zm0 -5l0 3 3 0 0 -3 -3 0zm0 -4l0 3 3 0 0 -3 -3 0zm0 -5l0 3 3 0 0 -3 -3 0zm0 -5l0 3 3 0 0 -3 -3 0zm0 -5l0 3 3 0 0 -3 -3 0zm0 -5l0 3 3 0 0 -3 -3 0 0 0zm0 -4l0 3 3 0 0 -3 -3 0 0 0zm0 -5l0 3 3 0 0 -3 -3 0 0 0zm0 -5l0 3 3 0 0 -3 -3 0zm-4 264l0 3 3 0 0 -3 -3 0zm0 -4l0 2 3 0 0 -2 -3 0zm0 -10l0 3 3 0 0 -3 -3 0zm0 -19l0 3 3 0 0 -3 -3 0zm0 -5l0 3 3 0 0 -3 -3 0zm0 -10l0 3 3 0 0 -3 -3 0zm0 -38l0 3 3 0 0 -3 -3 0zm0 -15l0 3 3 0 0 -3 -3 0zm0 -19l0 3 3 0 0 -3 -3 0zm0 -14l0 3 3 0 0 -3 -3 0zm0 -10l0 3 3 0 0 -3 -3 0zm0 -24l0 3 3 0 0 -3 -3 0zm0 -5l0 3 3 0 0 -3 -3 0zm0 -9l0 3 3 0 0 -3 -3 0zm0 -5l0 3 3 0 0 -3 -3 0zm0 -19l0 3 3 0 0 -3 -3 0zm0 -5l0 3 3 0 0 -3 -3 0zm0 -5l0 3 3 0 0 -3 -3 0zm0 -10l0 3 3 0 0 -3 -3 0zm0 -4l0 3 3 0 0 -3 -3 0zm0 -5l0 3 3 0 0 -3 -3 0zm0 -5l0 3 3 0 0 -3 -3 0zm0 -5l0 3 3 0 0 -3 -3 0zm0 -5l0 3 3 0 0 -3 -3 0 0 0zm0 -4l0 3 3 0 0 -3 -3 0 0 0zm0 -5l0 3 3 0 0 -3 -3 0 0 0zm0 -5l0 3 3 0 0 -3 -3 0zm-5 135l0 2 3 0 0 -2 -3 0zm0 -15l0 3 3 0 0 -3 -3 0zm0 -5l0 3 3 0 0 -3 -3 0zm0 -4l0 2 3 0 0 -2 -3 0zm0 -15l0 3 3 0 0 -3 -3 0zm0 -5l0 3 3 0 0 -3 -3 0zm0 -4l0 2 3 0 0 -2 -3 0zm0 -5l0 3 3 0 0 -3 -3 0zm0 -5l0 3 3 0 0 -3 -3 0zm0 -5l0 3 3 0 0 -3 -3 0zm0 -14l0 3 3 0 0 -3 -3 0zm0 -5l0 3 3 0 0 -3 -3 0zm0 -34l0 3 3 0 0 -3 -3 0zm0 -9l0 3 3 0 0 -3 -3 0 0 0zm0 -5l0 3 3 0 0 -3 -3 0 0 0zm0 -5l0 3 3 0 0 -3 -3 0zm-4 231l0 3 3 0 0 -3 -3 0zm0 -10l0 3 3 0 0 -3 -3 0zm0 -5l0 3 3 0 0 -3 -3 0zm0 -5l0 3 3 0 0 -3 -3 0zm0 -19l0 3 3 0 0 -3 -3 0zm0 -9l0 3 3 0 0 -3 -3 0zm0 -5l0 3 3 0 0 -3 -3 0zm0 -5l0 3 3 0 0 -3 -3 0zm0 -14l0 3 3 0 0 -3 -3 0zm0 -5l0 3 3 0 0 -3 -3 0zm0 -5l0 3 3 0 0 -3 -3 0zm0 -5l0 3 3 0 0 -3 -3 0zm0 -38l0 3 3 0 0 -3 -3 0zm0 -5l0 3 3 0 0 -3 -3 0zm0 -63l0 3 3 0 0 -3 -3 0zm0 -9l0 3 3 0 0 -3 -3 0zm0 -10l0 3 3 0 0 -3 -3 0zm0 -5l0 3 3 0 0 -3 -3 0 0 0zm0 -4l0 3 3 0 0 -3 -3 0 0 0zm0 -5l0 3 3 0 0 -3 -3 0 0 0zm0 -5l0 3 3 0 0 -3 -3 0zm-5 322l0 3 3 0 0 -3 -3 0zm0 -14l0 2 3 0 0 -2 -3 0zm0 -24l0 2 3 0 0 -2 -3 0zm0 -15l0 3 3 0 0 -3 -3 0zm0 -5l0 3 3 0 0 -3 -3 0zm0 -19l0 3 3 0 0 -3 -3 0zm0 -163l0 3 3 0 0 -3 -3 0zm0 -5l0 3 3 0 0 -3 -3 0zm0 -15l0 3 3 0 0 -3 -3 0zm0 -4l0 3 3 0 0 -3 -3 0zm0 -5l0 3 3 0 0 -3 -3 0zm0 -5l0 3 3 0 0 -3 -3 0zm0 -5l0 3 3 0 0 -3 -3 0zm0 -5l0 3 3 0 0 -3 -3 0zm0 -9l0 3 3 0 0 -3 -3 0zm0 -10l0 3 3 0 0 -3 -3 0zm0 -5l0 3 3 0 0 -3 -3 0 0 0zm0 -4l0 3 3 0 0 -3 -3 0 0 0zm0 -5l0 3 3 0 0 -3 -3 0 0 0zm0 -5l0 3 3 0 0 -3 -3 0zm-4 293l0 3 3 0 0 -3 -3 0zm0 -5l0 3 3 0 0 -3 -3 0zm0 -4l0 2 3 0 0 -2 -3 0zm0 -10l0 3 3 0 0 -3 -3 0zm0 -10l0 3 3 0 0 -3 -3 0zm0 -4l0 2 3 0 0 -2 -3 0zm0 -10l0 3 3 0 0 -3 -3 0zm0 -5l0 3 3 0 0 -3 -3 0zm0 -5l0 3 3 0 0 -3 -3 0zm0 -29l0 3 3 0 0 -3 -3 0zm0 -33l0 3 3 0 0 -3 -3 0zm0 -5l0 3 3 0 0 -3 -3 0zm0 -5l0 3 3 0 0 -3 -3 0zm0 -9l0 3 3 0 0 -3 -3 0zm0 -5l0 3 3 0 0 -3 -3 0zm0 -5l0 3 3 0 0 -3 -3 0zm0 -5l0 3 3 0 0 -3 -3 0zm0 -5l0 3 3 0 0 -3 -3 0zm0 -9l0 3 3 0 0 -3 -3 0zm0 -10l0 3 3 0 0 -3 -3 0zm0 -9l0 2 3 0 0 -2 -3 0zm0 -5l0 3 3 0 0 -3 -3 0zm0 -10l0 3 3 0 0 -3 -3 0zm0 -19l0 3 3 0 0 -3 -3 0zm0 -10l0 3 3 0 0 -3 -3 0 0 0zm0 -24l0 3 3 0 0 -3 -3 0zm0 -14l0 3 3 0 0 -3 -3 0zm0 -5l0 3 3 0 0 -3 -3 0zm0 -5l0 3 3 0 0 -3 -3 0zm0 -5l0 3 3 0 0 -3 -3 0 0 0zm0 -4l0 3 3 0 0 -3 -3 0 0 0zm0 -5l0 3 3 0 0 -3 -3 0 0 0zm0 -5l0 3 3 0 0 -3 -3 0zm-5 327l0 3 3 0 0 -3 -3 0zm0 -82l0 3 3 0 0 -3 -3 0zm0 -34l0 3 3 0 0 -3 -3 0zm0 -4l0 3 3 0 0 -3 -3 0zm0 -5l0 3 3 0 0 -3 -3 0zm0 -96l0 3 3 0 0 -3 -3 0zm0 -5l0 3 3 0 0 -3 -3 0zm0 -14l0 2 3 0 0 -2 -3 0zm0 -5l0 3 3 0 0 -3 -3 0zm0 -5l0 3 3 0 0 -3 -3 0zm0 -5l0 3 3 0 0 -3 -3 0zm0 -5l0 3 3 0 0 -3 -3 0 0 0zm0 -5l0 3 3 0 0 -3 -3 0zm0 -4l0 3 3 0 0 -3 -3 0zm0 -5l0 3 3 0 0 -3 -3 0zm0 -5l0 3 3 0 0 -3 -3 0zm0 -5l0 3 3 0 0 -3 -3 0zm0 -5l0 3 3 0 0 -3 -3 0zm0 -4l0 3 3 0 0 -3 -3 0zm0 -5l0 3 3 0 0 -3 -3 0zm0 -5l0 3 3 0 0 -3 -3 0zm0 -5l0 3 3 0 0 -3 -3 0zm0 -5l0 3 3 0 0 -3 -3 0 0 0zm0 -4l0 3 3 0 0 -3 -3 0 0 0zm0 -5l0 3 3 0 0 -3 -3 0 0 0zm0 -5l0 3 3 0 0 -3 -3 0zm-4 240l0 3 3 0 0 -3 -3 0zm0 -5l0 3 3 0 0 -3 -3 0zm0 -19l0 3 3 0 0 -3 -3 0zm0 -24l0 3 3 0 0 -3 -3 0zm0 -5l0 3 3 0 0 -3 -3 0zm0 -9l0 3 3 0 0 -3 -3 0zm0 -5l0 3 3 0 0 -3 -3 0zm0 -5l0 3 3 0 0 -3 -3 0zm0 -5l0 3 3 0 0 -3 -3 0zm0 -14l0 3 3 0 0 -3 -3 0zm0 -5l0 3 3 0 0 -3 -3 0zm0 -9l0 2 3 0 0 -2 -3 0zm0 -10l0 3 3 0 0 -3 -3 0zm0 -14l0 2 3 0 0 -2 -3 0zm0 -5l0 3 3 0 0 -3 -3 0zm0 -5l0 3 3 0 0 -3 -3 0zm0 -5l0 3 3 0 0 -3 -3 0zm0 -9l0 2 3 0 0 -2 -3 0zm0 -5l0 3 3 0 0 -3 -3 0zm0 -5l0 3 3 0 0 -3 -3 0zm0 -5l0 3 3 0 0 -3 -3 0zm0 -5l0 3 3 0 0 -3 -3 0 0 0zm0 -5l0 3 3 0 0 -3 -3 0zm0 -4l0 3 3 0 0 -3 -3 0zm0 -5l0 3 3 0 0 -3 -3 0zm0 -5l0 3 3 0 0 -3 -3 0zm0 -5l0 3 3 0 0 -3 -3 0zm0 -5l0 3 3 0 0 -3 -3 0zm0 -9l0 3 3 0 0 -3 -3 0zm0 -5l0 3 3 0 0 -3 -3 0zm0 -5l0 3 3 0 0 -3 -3 0zm0 -9l0 3 3 0 0 -3 -3 0 0 0zm0 -5l0 3 3 0 0 -3 -3 0 0 0zm0 -5l0 3 3 0 0 -3 -3 0zm-4 312l0 3 2 0 0 -3 -2 0zm0 -9l0 3 2 0 0 -3 -2 0zm0 -5l0 3 2 0 0 -3 -2 0zm0 -5l0 3 2 0 0 -3 -2 0zm0 -9l0 2 2 0 0 -2 -2 0zm0 -15l0 3 2 0 0 -3 -2 0zm0 -5l0 3 2 0 0 -3 -2 0zm0 -4l0 2 2 0 0 -2 -2 0zm0 -10l0 3 2 0 0 -3 -2 0zm0 -10l0 3 2 0 0 -3 -2 0zm0 -14l0 3 2 0 0 -3 -2 0zm0 -10l0 3 2 0 0 -3 -2 0zm0 -14l0 3 2 0 0 -3 -2 0zm0 -5l0 3 2 0 0 -3 -2 0zm0 -10l0 3 2 0 0 -3 -2 0zm0 -4l0 3 2 0 0 -3 -2 0zm0 -10l0 3 2 0 0 -3 -2 0zm0 -10l0 3 2 0 0 -3 -2 0zm0 -4l0 3 2 0 0 -3 -2 0zm0 -5l0 3 2 0 0 -3 -2 0zm0 -5l0 3 2 0 0 -3 -2 0zm0 -24l0 3 2 0 0 -3 -2 0zm0 -5l0 3 2 0 0 -3 -2 0zm0 -5l0 3 2 0 0 -3 -2 0zm0 -4l0 2 2 0 0 -2 -2 0zm0 -5l0 3 2 0 0 -3 -2 0zm0 -10l0 3 2 0 0 -3 -2 0zm0 -5l0 3 2 0 0 -3 -2 0zm0 -29l0 3 2 0 0 -3 -2 0zm0 -4l0 3 2 0 0 -3 -2 0zm0 -5l0 3 2 0 0 -3 -2 0zm0 -5l0 3 2 0 0 -3 -2 0zm0 -5l0 3 2 0 0 -3 -2 0zm0 -5l0 3 2 0 0 -3 -2 0zm0 -4l0 3 2 0 0 -3 -2 0zm0 -5l0 3 2 0 0 -3 -2 0zm0 -5l0 3 2 0 0 -3 -2 0zm0 -5l0 3 2 0 0 -3 -2 0zm0 -5l0 3 2 0 0 -3 -2 0 0 0zm0 -4l0 3 2 0 0 -3 -2 0 0 0zm0 -5l0 3 2 0 0 -3 -2 0 0 0zm0 -5l0 3 2 0 0 -3 -2 0zm-5 279l0 3 3 0 0 -3 -3 0zm0 -5l0 3 3 0 0 -3 -3 0zm0 -159l0 3 3 0 0 -3 -3 0zm0 -4l0 2 3 0 0 -2 -3 0zm0 -10l0 3 3 0 0 -3 -3 0zm0 -5l0 3 3 0 0 -3 -3 0zm0 -5l0 3 3 0 0 -3 -3 0 0 0zm0 -9l0 3 3 0 0 -3 -3 0zm0 -5l0 3 3 0 0 -3 -3 0zm0 -5l0 3 3 0 0 -3 -3 0zm0 -5l0 3 3 0 0 -3 -3 0 0 0zm0 -5l0 3 3 0 0 -3 -3 0zm0 -4l0 3 3 0 0 -3 -3 0zm0 -5l0 3 3 0 0 -3 -3 0zm0 -10l0 3 3 0 0 -3 -3 0zm0 -5l0 3 3 0 0 -3 -3 0zm0 -4l0 3 3 0 0 -3 -3 0zm0 -5l0 3 3 0 0 -3 -3 0zm0 -5l0 3 3 0 0 -3 -3 0zm0 -5l0 3 3 0 0 -3 -3 0zm0 -5l0 3 3 0 0 -3 -3 0 0 0zm0 -4l0 3 3 0 0 -3 -3 0 0 0zm0 -5l0 3 3 0 0 -3 -3 0 0 0zm0 -5l0 3 3 0 0 -3 -3 0zm-4 183l0 3 2 0 0 -3 -2 0zm0 -5l0 3 2 0 0 -3 -2 0zm0 -5l0 3 2 0 0 -3 -2 0zm0 -10l0 3 2 0 0 -3 -2 0zm0 -4l0 3 2 0 0 -3 -2 0zm0 -15l0 3 2 0 0 -3 -2 0zm0 -5l0 3 2 0 0 -3 -2 0zm0 -9l0 3 2 0 0 -3 -2 0zm0 -15l0 3 2 0 0 -3 -2 0zm0 -14l0 3 2 0 0 -3 -2 0zm0 -10l0 3 2 0 0 -3 -2 0 0 0zm0 -9l0 3 2 0 0 -3 -2 0zm0 -5l0 3 2 0 0 -3 -2 0zm0 -19l0 3 2 0 0 -3 -2 0zm0 -5l0 3 2 0 0 -3 -2 0zm0 -10l0 3 2 0 0 -3 -2 0zm0 -5l0 3 2 0 0 -3 -2 0zm0 -4l0 3 2 0 0 -3 -2 0zm0 -5l0 3 2 0 0 -3 -2 0zm0 -5l0 3 2 0 0 -3 -2 0zm0 -5l0 3 2 0 0 -3 -2 0zm0 -5l0 3 2 0 0 -3 -2 0 0 0zm0 -4l0 3 2 0 0 -3 -2 0 0 0zm0 -5l0 3 2 0 0 -3 -2 0 0 0zm0 -5l0 3 2 0 0 -3 -2 0zm-5 250l0 3 3 0 0 -3 -3 0zm0 -5l0 3 3 0 0 -3 -3 0zm0 -14l0 3 3 0 0 -3 -3 0zm0 -10l0 3 3 0 0 -3 -3 0zm0 -10l0 3 3 0 0 -3 -3 0zm0 -9l0 3 3 0 0 -3 -3 0zm0 -19l0 3 3 0 0 -3 -3 0zm0 -5l0 3 3 0 0 -3 -3 0zm0 -10l0 3 3 0 0 -3 -3 0zm0 -5l0 3 3 0 0 -3 -3 0zm0 -19l0 3 3 0 0 -3 -3 0zm0 -5l0 3 3 0 0 -3 -3 0zm0 -4l0 2 3 0 0 -2 -3 0zm0 -5l0 3 3 0 0 -3 -3 0zm0 -10l0 3 3 0 0 -3 -3 0zm0 -5l0 3 3 0 0 -3 -3 0zm0 -4l0 2 3 0 0 -2 -3 0zm0 -5l0 3 3 0 0 -3 -3 0zm0 -5l0 3 3 0 0 -3 -3 0zm0 -10l0 3 3 0 0 -3 -3 0 0 0zm0 -4l0 2 3 0 0 -2 -3 0zm0 -15l0 3 3 0 0 -3 -3 0zm0 -5l0 3 3 0 0 -3 -3 0 0 0zm0 -5l0 3 3 0 0 -3 -3 0zm0 -4l0 3 3 0 0 -3 -3 0zm0 -10l0 3 3 0 0 -3 -3 0zm0 -5l0 3 3 0 0 -3 -3 0zm0 -5l0 3 3 0 0 -3 -3 0zm0 -4l0 3 3 0 0 -3 -3 0zm0 -5l0 3 3 0 0 -3 -3 0zm0 -5l0 3 3 0 0 -3 -3 0zm0 -5l0 3 3 0 0 -3 -3 0zm0 -5l0 3 3 0 0 -3 -3 0 0 0zm0 -4l0 3 3 0 0 -3 -3 0 0 0zm0 -5l0 3 3 0 0 -3 -3 0 0 0zm0 -5l0 3 3 0 0 -3 -3 0zm-4 53l0 3 2 0 0 -3 -2 0zm0 -5l0 3 2 0 0 -3 -2 0zm0 -5l0 3 2 0 0 -3 -2 0zm0 -5l0 3 2 0 0 -3 -2 0zm0 -9l0 3 2 0 0 -3 -2 0zm0 -10l0 3 2 0 0 -3 -2 0zm0 -9l0 3 2 0 0 -3 -2 0 0 0zm0 -10l0 3 2 0 0 -3 -2 0zm-5 245l0 3 3 0 0 -3 -3 0zm0 -5l0 3 3 0 0 -3 -3 0zm0 -19l0 3 3 0 0 -3 -3 0zm0 -5l0 3 3 0 0 -3 -3 0zm0 -5l0 3 3 0 0 -3 -3 0zm0 -4l0 3 3 0 0 -3 -3 0zm0 -10l0 3 3 0 0 -3 -3 0zm0 -5l0 3 3 0 0 -3 -3 0zm0 -9l0 3 3 0 0 -3 -3 0zm0 -15l0 3 3 0 0 -3 -3 0zm0 -5l0 3 3 0 0 -3 -3 0zm0 -4l0 3 3 0 0 -3 -3 0zm0 -10l0 3 3 0 0 -3 -3 0zm0 -10l0 3 3 0 0 -3 -3 0zm0 -4l0 2 3 0 0 -2 -3 0zm0 -10l0 3 3 0 0 -3 -3 0zm0 -5l0 3 3 0 0 -3 -3 0zm0 -5l0 3 3 0 0 -3 -3 0zm0 -4l0 2 3 0 0 -2 -3 0zm0 -5l0 3 3 0 0 -3 -3 0zm0 -5l0 3 3 0 0 -3 -3 0zm0 -5l0 3 3 0 0 -3 -3 0zm0 -5l0 3 3 0 0 -3 -3 0 0 0zm0 -4l0 2 3 0 0 -2 -3 0zm0 -5l0 3 3 0 0 -3 -3 0zm0 -5l0 3 3 0 0 -3 -3 0zm0 -5l0 3 3 0 0 -3 -3 0zm0 -5l0 3 3 0 0 -3 -3 0 0 0zm0 -5l0 3 3 0 0 -3 -3 0zm0 -4l0 3 3 0 0 -3 -3 0zm0 -5l0 3 3 0 0 -3 -3 0zm0 -5l0 3 3 0 0 -3 -3 0zm0 -5l0 3 3 0 0 -3 -3 0zm0 -5l0 3 3 0 0 -3 -3 0zm0 -4l0 3 3 0 0 -3 -3 0zm0 -5l0 3 3 0 0 -3 -3 0zm0 -5l0 3 3 0 0 -3 -3 0zm0 -5l0 3 3 0 0 -3 -3 0zm0 -5l0 3 3 0 0 -3 -3 0 0 0zm0 -4l0 3 3 0 0 -3 -3 0 0 0zm0 -5l0 3 3 0 0 -3 -3 0 0 0zm0 -5l0 3 3 0 0 -3 -3 0zm-4 317l0 3 2 0 0 -3 -2 0zm0 -5l0 3 2 0 0 -3 -2 0zm0 -177l0 2 2 0 0 -2 -2 0zm0 -5l0 3 2 0 0 -3 -2 0zm0 -5l0 3 2 0 0 -3 -2 0zm0 -10l0 3 2 0 0 -3 -2 0zm0 -9l0 3 2 0 0 -3 -2 0zm0 -10l0 3 2 0 0 -3 -2 0zm0 -5l0 3 2 0 0 -3 -2 0 0 0zm0 -19l0 3 2 0 0 -3 -2 0zm0 -5l0 3 2 0 0 -3 -2 0 0 0zm0 -5l0 3 2 0 0 -3 -2 0zm0 -9l0 3 2 0 0 -3 -2 0zm0 -5l0 3 2 0 0 -3 -2 0zm0 -5l0 3 2 0 0 -3 -2 0zm0 -5l0 3 2 0 0 -3 -2 0zm0 -4l0 3 2 0 0 -3 -2 0zm0 -15l0 3 2 0 0 -3 -2 0zm0 -5l0 3 2 0 0 -3 -2 0 0 0zm0 -4l0 3 2 0 0 -3 -2 0 0 0zm0 -5l0 3 2 0 0 -3 -2 0 0 0zm0 -5l0 3 2 0 0 -3 -2 0zm-5 130l0 3 3 0 0 -3 -3 0zm0 -10l0 3 3 0 0 -3 -3 0zm0 -9l0 2 3 0 0 -2 -3 0zm0 -15l0 3 3 0 0 -3 -3 0zm0 -14l0 3 3 0 0 -3 -3 0zm0 -5l0 3 3 0 0 -3 -3 0zm0 -5l0 3 3 0 0 -3 -3 0zm0 -5l0 3 3 0 0 -3 -3 0 0 0zm0 -5l0 3 3 0 0 -3 -3 0zm0 -9l0 3 3 0 0 -3 -3 0zm0 -5l0 3 3 0 0 -3 -3 0zm0 -5l0 3 3 0 0 -3 -3 0zm0 -5l0 3 3 0 0 -3 -3 0zm0 -4l0 3 3 0 0 -3 -3 0zm0 -5l0 3 3 0 0 -3 -3 0zm0 -5l0 3 3 0 0 -3 -3 0zm0 -5l0 3 3 0 0 -3 -3 0zm0 -5l0 3 3 0 0 -3 -3 0 0 0zm0 -4l0 3 3 0 0 -3 -3 0 0 0zm0 -5l0 3 3 0 0 -3 -3 0 0 0zm0 -5l0 3 3 0 0 -3 -3 0zm-4 125l0 3 2 0 0 -3 -2 0zm0 -5l0 3 2 0 0 -3 -2 0zm0 -9l0 2 2 0 0 -2 -2 0zm0 -5l0 3 2 0 0 -3 -2 0zm0 -15l0 3 2 0 0 -3 -2 0 0 0zm0 -9l0 3 2 0 0 -3 -2 0zm0 -10l0 3 2 0 0 -3 -2 0zm0 -5l0 3 2 0 0 -3 -2 0 0 0zm0 -9l0 3 2 0 0 -3 -2 0zm0 -24l0 3 2 0 0 -3 -2 0zm0 -5l0 3 2 0 0 -3 -2 0zm0 -5l0 3 2 0 0 -3 -2 0zm0 -10l0 3 2 0 0 -3 -2 0 0 0zm0 -4l0 3 2 0 0 -3 -2 0 0 0zm0 -5l0 3 2 0 0 -3 -2 0 0 0zm0 -5l0 3 2 0 0 -3 -2 0zm-5 135l0 2 3 0 0 -2 -3 0zm0 -5l0 3 3 0 0 -3 -3 0zm0 -15l0 3 3 0 0 -3 -3 0zm0 -4l0 2 3 0 0 -2 -3 0zm0 -5l0 3 3 0 0 -3 -3 0zm0 -10l0 3 3 0 0 -3 -3 0zm0 -5l0 3 3 0 0 -3 -3 0 0 0zm0 -4l0 2 3 0 0 -2 -3 0zm0 -5l0 3 3 0 0 -3 -3 0zm0 -5l0 3 3 0 0 -3 -3 0zm0 -5l0 3 3 0 0 -3 -3 0zm0 -14l0 3 3 0 0 -3 -3 0zm0 -5l0 3 3 0 0 -3 -3 0zm0 -5l0 3 3 0 0 -3 -3 0zm0 -5l0 3 3 0 0 -3 -3 0zm0 -9l0 3 3 0 0 -3 -3 0zm0 -15l0 3 3 0 0 -3 -3 0zm0 -5l0 3 3 0 0 -3 -3 0 0 0zm0 -4l0 3 3 0 0 -3 -3 0 0 0zm0 -5l0 3 3 0 0 -3 -3 0 0 0zm0 -5l0 3 3 0 0 -3 -3 0zm-4 144l0 3 2 0 0 -3 -2 0zm0 -9l0 2 2 0 0 -2 -2 0zm0 -5l0 3 2 0 0 -3 -2 0zm0 -5l0 3 2 0 0 -3 -2 0zm0 -5l0 3 2 0 0 -3 -2 0zm0 -14l0 3 2 0 0 -3 -2 0zm0 -5l0 3 2 0 0 -3 -2 0zm0 -5l0 3 2 0 0 -3 -2 0zm0 -5l0 3 2 0 0 -3 -2 0 0 0zm0 -4l0 2 2 0 0 -2 -2 0zm0 -5l0 3 2 0 0 -3 -2 0zm0 -20l0 3 2 0 0 -3 -2 0zm0 -9l0 3 2 0 0 -3 -2 0zm0 -5l0 3 2 0 0 -3 -2 0zm0 -5l0 3 2 0 0 -3 -2 0zm0 -5l0 3 2 0 0 -3 -2 0zm0 -4l0 3 2 0 0 -3 -2 0zm0 -5l0 3 2 0 0 -3 -2 0zm0 -5l0 3 2 0 0 -3 -2 0zm0 -10l0 3 2 0 0 -3 -2 0 0 0zm0 -9l0 3 2 0 0 -3 -2 0 0 0zm0 -5l0 3 2 0 0 -3 -2 0zm-5 159l0 3 3 0 0 -3 -3 0zm0 -5l0 3 3 0 0 -3 -3 0zm0 -5l0 3 3 0 0 -3 -3 0zm0 -5l0 3 3 0 0 -3 -3 0zm0 -9l0 2 3 0 0 -2 -3 0zm0 -5l0 3 3 0 0 -3 -3 0zm0 -10l0 3 3 0 0 -3 -3 0zm0 -5l0 3 3 0 0 -3 -3 0zm0 -4l0 2 3 0 0 -2 -3 0zm0 -5l0 3 3 0 0 -3 -3 0zm0 -10l0 3 3 0 0 -3 -3 0zm0 -5l0 3 3 0 0 -3 -3 0 0 0zm0 -9l0 3 3 0 0 -3 -3 0zm0 -5l0 3 3 0 0 -3 -3 0zm0 -5l0 3 3 0 0 -3 -3 0zm0 -5l0 3 3 0 0 -3 -3 0 0 0zm0 -14l0 3 3 0 0 -3 -3 0zm0 -5l0 3 3 0 0 -3 -3 0zm0 -5l0 3 3 0 0 -3 -3 0zm0 -9l0 3 3 0 0 -3 -3 0zm0 -10l0 3 3 0 0 -3 -3 0zm0 -14l0 3 3 0 0 -3 -3 0 0 0zm0 -5l0 3 3 0 0 -3 -3 0 0 0zm0 -5l0 3 3 0 0 -3 -3 0zm-4 197l0 3 2 0 0 -3 -2 0zm0 -10l0 3 2 0 0 -3 -2 0zm0 -4l0 3 2 0 0 -3 -2 0zm0 -5l0 3 2 0 0 -3 -2 0zm0 -5l0 3 2 0 0 -3 -2 0zm0 -5l0 3 2 0 0 -3 -2 0zm0 -14l0 3 2 0 0 -3 -2 0zm0 -10l0 3 2 0 0 -3 -2 0zm0 -14l0 3 2 0 0 -3 -2 0zm0 -10l0 3 2 0 0 -3 -2 0zm0 -5l0 3 2 0 0 -3 -2 0zm0 -4l0 2 2 0 0 -2 -2 0zm0 -5l0 3 2 0 0 -3 -2 0zm0 -5l0 3 2 0 0 -3 -2 0zm0 -5l0 3 2 0 0 -3 -2 0zm0 -5l0 3 2 0 0 -3 -2 0 0 0zm0 -4l0 2 2 0 0 -2 -2 0zm0 -5l0 3 2 0 0 -3 -2 0zm0 -5l0 3 2 0 0 -3 -2 0zm0 -5l0 3 2 0 0 -3 -2 0zm0 -5l0 3 2 0 0 -3 -2 0 0 0zm0 -5l0 3 2 0 0 -3 -2 0zm0 -4l0 3 2 0 0 -3 -2 0zm0 -5l0 3 2 0 0 -3 -2 0zm0 -5l0 3 2 0 0 -3 -2 0zm0 -5l0 3 2 0 0 -3 -2 0zm0 -5l0 3 2 0 0 -3 -2 0zm0 -4l0 3 2 0 0 -3 -2 0zm0 -5l0 3 2 0 0 -3 -2 0zm0 -5l0 3 2 0 0 -3 -2 0zm0 -5l0 3 2 0 0 -3 -2 0zm0 -5l0 3 2 0 0 -3 -2 0 0 0zm0 -4l0 3 2 0 0 -3 -2 0 0 0zm0 -5l0 3 2 0 0 -3 -2 0 0 0zm0 -5l0 3 2 0 0 -3 -2 0zm-5 293l0 3 3 0 0 -3 -3 0zm0 -9l0 2 3 0 0 -2 -3 0zm0 -5l0 3 3 0 0 -3 -3 0zm0 -15l0 3 3 0 0 -3 -3 0zm0 -9l0 3 3 0 0 -3 -3 0zm0 -5l0 3 3 0 0 -3 -3 0zm0 -5l0 3 3 0 0 -3 -3 0zm0 -5l0 3 3 0 0 -3 -3 0zm0 -14l0 3 3 0 0 -3 -3 0zm0 -10l0 3 3 0 0 -3 -3 0zm0 -14l0 3 3 0 0 -3 -3 0zm0 -10l0 3 3 0 0 -3 -3 0zm0 -5l0 3 3 0 0 -3 -3 0zm0 -9l0 3 3 0 0 -3 -3 0zm0 -10l0 3 3 0 0 -3 -3 0zm0 -9l0 3 3 0 0 -3 -3 0zm0 -5l0 3 3 0 0 -3 -3 0zm0 -5l0 3 3 0 0 -3 -3 0zm0 -5l0 3 3 0 0 -3 -3 0zm0 -9l0 2 3 0 0 -2 -3 0zm0 -5l0 3 3 0 0 -3 -3 0zm0 -5l0 3 3 0 0 -3 -3 0zm0 -5l0 3 3 0 0 -3 -3 0zm0 -9l0 2 3 0 0 -2 -3 0zm0 -10l0 3 3 0 0 -3 -3 0zm0 -5l0 3 3 0 0 -3 -3 0zm0 -5l0 3 3 0 0 -3 -3 0 0 0zm0 -9l0 3 3 0 0 -3 -3 0zm0 -5l0 3 3 0 0 -3 -3 0zm0 -5l0 3 3 0 0 -3 -3 0zm0 -5l0 3 3 0 0 -3 -3 0 0 0zm0 -5l0 3 3 0 0 -3 -3 0zm0 -4l0 3 3 0 0 -3 -3 0zm0 -5l0 3 3 0 0 -3 -3 0zm0 -5l0 3 3 0 0 -3 -3 0zm0 -5l0 3 3 0 0 -3 -3 0zm0 -5l0 3 3 0 0 -3 -3 0zm0 -4l0 3 3 0 0 -3 -3 0zm0 -5l0 3 3 0 0 -3 -3 0zm0 -5l0 3 3 0 0 -3 -3 0zm0 -5l0 3 3 0 0 -3 -3 0zm0 -5l0 3 3 0 0 -3 -3 0 0 0zm0 -4l0 3 3 0 0 -3 -3 0 0 0zm0 -5l0 3 3 0 0 -3 -3 0 0 0zm0 -5l0 3 3 0 0 -3 -3 0zm-4 245l0 3 2 0 0 -3 -2 0zm0 -5l0 3 2 0 0 -3 -2 0zm0 -9l0 3 2 0 0 -3 -2 0zm0 -5l0 3 2 0 0 -3 -2 0zm0 -10l0 3 2 0 0 -3 -2 0zm0 -9l0 3 2 0 0 -3 -2 0zm0 -5l0 3 2 0 0 -3 -2 0zm0 -10l0 3 2 0 0 -3 -2 0zm0 -9l0 3 2 0 0 -3 -2 0zm0 -5l0 3 2 0 0 -3 -2 0zm0 -10l0 3 2 0 0 -3 -2 0zm0 -5l0 3 2 0 0 -3 -2 0zm0 -9l0 3 2 0 0 -3 -2 0zm0 -10l0 3 2 0 0 -3 -2 0zm0 -5l0 3 2 0 0 -3 -2 0zm0 -4l0 2 2 0 0 -2 -2 0zm0 -5l0 3 2 0 0 -3 -2 0zm0 -19l0 2 2 0 0 -2 -2 0zm0 -5l0 3 2 0 0 -3 -2 0zm0 -5l0 3 2 0 0 -3 -2 0zm0 -5l0 3 2 0 0 -3 -2 0zm0 -5l0 3 2 0 0 -3 -2 0 0 0zm0 -4l0 2 2 0 0 -2 -2 0zm0 -5l0 3 2 0 0 -3 -2 0zm0 -5l0 3 2 0 0 -3 -2 0zm0 -5l0 3 2 0 0 -3 -2 0zm0 -5l0 3 2 0 0 -3 -2 0 0 0zm0 -5l0 3 2 0 0 -3 -2 0zm0 -4l0 3 2 0 0 -3 -2 0zm0 -5l0 3 2 0 0 -3 -2 0zm0 -5l0 3 2 0 0 -3 -2 0zm0 -5l0 3 2 0 0 -3 -2 0zm0 -5l0 3 2 0 0 -3 -2 0zm0 -4l0 3 2 0 0 -3 -2 0zm0 -5l0 3 2 0 0 -3 -2 0zm0 -5l0 3 2 0 0 -3 -2 0zm0 -5l0 3 2 0 0 -3 -2 0zm0 -5l0 3 2 0 0 -3 -2 0 0 0zm0 -4l0 3 2 0 0 -3 -2 0 0 0zm0 -5l0 3 2 0 0 -3 -2 0 0 0zm0 -5l0 3 2 0 0 -3 -2 0zm-5 288l0 3 3 0 0 -3 -3 0zm0 -4l0 2 3 0 0 -2 -3 0zm0 -5l0 3 3 0 0 -3 -3 0zm0 -5l0 3 3 0 0 -3 -3 0zm0 -5l0 3 3 0 0 -3 -3 0zm0 -5l0 3 3 0 0 -3 -3 0zm0 -4l0 2 3 0 0 -2 -3 0zm0 -5l0 3 3 0 0 -3 -3 0zm0 -10l0 3 3 0 0 -3 -3 0zm0 -5l0 3 3 0 0 -3 -3 0zm0 -14l0 3 3 0 0 -3 -3 0zm0 -5l0 3 3 0 0 -3 -3 0zm0 -5l0 3 3 0 0 -3 -3 0zm0 -5l0 3 3 0 0 -3 -3 0zm0 -115l0 3 3 0 0 -3 -3 0zm0 -5l0 3 3 0 0 -3 -3 0 0 0zm0 -4l0 2 3 0 0 -2 -3 0zm0 -5l0 3 3 0 0 -3 -3 0zm0 -5l0 3 3 0 0 -3 -3 0zm0 -5l0 3 3 0 0 -3 -3 0zm0 -5l0 3 3 0 0 -3 -3 0 0 0zm0 -9l0 3 3 0 0 -3 -3 0zm0 -5l0 3 3 0 0 -3 -3 0zm0 -10l0 3 3 0 0 -3 -3 0zm0 -5l0 3 3 0 0 -3 -3 0zm0 -4l0 3 3 0 0 -3 -3 0zm0 -15l0 3 3 0 0 -3 -3 0zm0 -5l0 3 3 0 0 -3 -3 0 0 0zm-4 241l0 3 2 0 0 -3 -2 0zm0 -5l0 3 2 0 0 -3 -2 0zm0 -19l0 3 2 0 0 -3 -2 0zm0 -5l0 3 2 0 0 -3 -2 0zm0 -5l0 3 2 0 0 -3 -2 0zm0 -10l0 3 2 0 0 -3 -2 0zm0 -4l0 3 2 0 0 -3 -2 0zm0 -10l0 3 2 0 0 -3 -2 0zm0 -14l0 3 2 0 0 -3 -2 0zm0 -5l0 3 2 0 0 -3 -2 0zm0 -10l0 3 2 0 0 -3 -2 0zm0 -5l0 3 2 0 0 -3 -2 0zm0 -4l0 3 2 0 0 -3 -2 0zm0 -5l0 3 2 0 0 -3 -2 0zm0 -15l0 3 2 0 0 -3 -2 0zm0 -4l0 2 2 0 0 -2 -2 0zm0 -5l0 3 2 0 0 -3 -2 0zm0 -5l0 3 2 0 0 -3 -2 0zm0 -5l0 3 2 0 0 -3 -2 0zm0 -5l0 3 2 0 0 -3 -2 0zm0 -4l0 2 2 0 0 -2 -2 0zm0 -10l0 3 2 0 0 -3 -2 0zm0 -5l0 3 2 0 0 -3 -2 0zm0 -9l0 2 2 0 0 -2 -2 0zm0 -5l0 3 2 0 0 -3 -2 0zm0 -10l0 3 2 0 0 -3 -2 0zm0 -5l0 3 2 0 0 -3 -2 0 0 0zm0 -5l0 3 2 0 0 -3 -2 0zm0 -4l0 3 2 0 0 -3 -2 0zm0 -5l0 3 2 0 0 -3 -2 0zm0 -5l0 3 2 0 0 -3 -2 0zm0 -5l0 3 2 0 0 -3 -2 0zm0 -5l0 3 2 0 0 -3 -2 0zm0 -4l0 3 2 0 0 -3 -2 0zm0 -5l0 3 2 0 0 -3 -2 0zm0 -5l0 3 2 0 0 -3 -2 0zm0 -5l0 3 2 0 0 -3 -2 0zm0 -5l0 3 2 0 0 -3 -2 0 0 0zm0 -4l0 3 2 0 0 -3 -2 0 0 0zm0 -5l0 3 2 0 0 -3 -2 0 0 0zm0 -5l0 3 2 0 0 -3 -2 0 0 0zm-5 327l0 3 3 0 0 -3 -3 0zm0 -10l0 3 3 0 0 -3 -3 0zm0 -5l0 3 3 0 0 -3 -3 0zm0 -14l0 3 3 0 0 -3 -3 0zm0 -10l0 3 3 0 0 -3 -3 0zm0 -4l0 2 3 0 0 -2 -3 0zm0 -10l0 3 3 0 0 -3 -3 0zm0 -5l0 3 3 0 0 -3 -3 0zm0 -5l0 3 3 0 0 -3 -3 0zm0 -14l0 3 3 0 0 -3 -3 0zm0 -10l0 3 3 0 0 -3 -3 0zm0 -5l0 3 3 0 0 -3 -3 0zm0 -4l0 3 3 0 0 -3 -3 0zm0 -5l0 3 3 0 0 -3 -3 0zm0 -10l0 3 3 0 0 -3 -3 0zm0 -5l0 3 3 0 0 -3 -3 0zm0 -9l0 3 3 0 0 -3 -3 0zm0 -5l0 3 3 0 0 -3 -3 0zm0 -5l0 3 3 0 0 -3 -3 0zm0 -14l0 3 3 0 0 -3 -3 0zm0 -58l0 3 3 0 0 -3 -3 0zm0 -5l0 3 3 0 0 -3 -3 0zm0 -4l0 2 3 0 0 -2 -3 0zm0 -5l0 3 3 0 0 -3 -3 0zm0 -5l0 3 3 0 0 -3 -3 0zm0 -5l0 3 3 0 0 -3 -3 0zm0 -9l0 2 3 0 0 -2 -3 0zm0 -5l0 3 3 0 0 -3 -3 0zm0 -5l0 3 3 0 0 -3 -3 0zm0 -5l0 3 3 0 0 -3 -3 0zm0 -5l0 3 3 0 0 -3 -3 0 0 0zm0 -5l0 3 3 0 0 -3 -3 0zm0 -4l0 3 3 0 0 -3 -3 0zm0 -5l0 3 3 0 0 -3 -3 0zm0 -5l0 3 3 0 0 -3 -3 0zm0 -5l0 3 3 0 0 -3 -3 0zm0 -5l0 3 3 0 0 -3 -3 0zm0 -4l0 3 3 0 0 -3 -3 0zm0 -5l0 3 3 0 0 -3 -3 0zm0 -5l0 3 3 0 0 -3 -3 0zm0 -5l0 3 3 0 0 -3 -3 0zm0 -5l0 3 3 0 0 -3 -3 0 0 0zm0 -4l0 3 3 0 0 -3 -3 0 0 0zm0 -5l0 3 3 0 0 -3 -3 0 0 0zm0 -5l0 3 3 0 0 -3 -3 0 0 0zm-4 250l0 3 2 0 0 -3 -2 0zm0 -5l0 3 2 0 0 -3 -2 0zm0 -5l0 3 2 0 0 -3 -2 0zm0 -9l0 3 2 0 0 -3 -2 0zm0 -15l0 3 2 0 0 -3 -2 0zm0 -5l0 3 2 0 0 -3 -2 0zm0 -4l0 3 2 0 0 -3 -2 0zm0 -5l0 3 2 0 0 -3 -2 0zm0 -5l0 3 2 0 0 -3 -2 0zm0 -5l0 3 2 0 0 -3 -2 0zm0 -5l0 3 2 0 0 -3 -2 0zm0 -4l0 3 2 0 0 -3 -2 0zm0 -5l0 3 2 0 0 -3 -2 0zm0 -10l0 3 2 0 0 -3 -2 0zm0 -5l0 3 2 0 0 -3 -2 0zm0 -4l0 3 2 0 0 -3 -2 0zm0 -5l0 3 2 0 0 -3 -2 0zm0 -5l0 3 2 0 0 -3 -2 0zm0 -5l0 3 2 0 0 -3 -2 0zm0 -5l0 3 2 0 0 -3 -2 0zm0 -4l0 2 2 0 0 -2 -2 0zm0 -5l0 3 2 0 0 -3 -2 0zm0 -5l0 3 2 0 0 -3 -2 0zm0 -5l0 3 2 0 0 -3 -2 0zm0 -5l0 3 2 0 0 -3 -2 0zm0 -4l0 2 2 0 0 -2 -2 0zm0 -5l0 3 2 0 0 -3 -2 0zm0 -10l0 3 2 0 0 -3 -2 0zm0 -5l0 3 2 0 0 -3 -2 0 0 0zm0 -4l0 2 2 0 0 -2 -2 0zm0 -5l0 3 2 0 0 -3 -2 0zm0 -5l0 3 2 0 0 -3 -2 0zm0 -5l0 3 2 0 0 -3 -2 0zm0 -5l0 3 2 0 0 -3 -2 0 0 0zm0 -5l0 3 2 0 0 -3 -2 0zm0 -4l0 3 2 0 0 -3 -2 0zm0 -5l0 3 2 0 0 -3 -2 0zm0 -5l0 3 2 0 0 -3 -2 0zm0 -5l0 3 2 0 0 -3 -2 0zm0 -5l0 3 2 0 0 -3 -2 0zm0 -4l0 3 2 0 0 -3 -2 0zm0 -5l0 3 2 0 0 -3 -2 0zm0 -5l0 3 2 0 0 -3 -2 0zm0 -5l0 3 2 0 0 -3 -2 0zm0 -5l0 3 2 0 0 -3 -2 0 0 0zm0 -4l0 3 2 0 0 -3 -2 0 0 0zm0 -5l0 3 2 0 0 -3 -2 0 0 0zm0 -5l0 3 2 0 0 -3 -2 0 0 0zm-5 240l0 3 3 0 0 -3 -3 0zm0 -5l0 3 3 0 0 -3 -3 0zm0 -9l0 3 3 0 0 -3 -3 0zm0 -10l0 3 3 0 0 -3 -3 0zm0 -19l0 3 3 0 0 -3 -3 0zm0 -5l0 3 3 0 0 -3 -3 0zm0 -5l0 3 3 0 0 -3 -3 0zm0 -4l0 3 3 0 0 -3 -3 0zm0 -34l0 3 3 0 0 -3 -3 0zm0 -5l0 3 3 0 0 -3 -3 0zm0 -5l0 3 3 0 0 -3 -3 0zm0 -9l0 3 3 0 0 -3 -3 0zm0 -10l0 3 3 0 0 -3 -3 0zm0 -9l0 2 3 0 0 -2 -3 0zm0 -5l0 3 3 0 0 -3 -3 0zm0 -5l0 3 3 0 0 -3 -3 0zm0 -5l0 3 3 0 0 -3 -3 0zm0 -5l0 3 3 0 0 -3 -3 0 0 0zm0 -14l0 3 3 0 0 -3 -3 0zm0 -5l0 3 3 0 0 -3 -3 0zm0 -10l0 3 3 0 0 -3 -3 0zm0 -9l0 3 3 0 0 -3 -3 0zm0 -5l0 3 3 0 0 -3 -3 0zm0 -5l0 3 3 0 0 -3 -3 0zm0 -5l0 3 3 0 0 -3 -3 0zm0 -4l0 3 3 0 0 -3 -3 0zm0 -5l0 3 3 0 0 -3 -3 0zm0 -5l0 3 3 0 0 -3 -3 0zm0 -5l0 3 3 0 0 -3 -3 0zm0 -5l0 3 3 0 0 -3 -3 0 0 0zm0 -4l0 3 3 0 0 -3 -3 0 0 0zm0 -5l0 3 3 0 0 -3 -3 0 0 0zm0 -5l0 3 3 0 0 -3 -3 0 0 0zm-4 327l0 3 3 0 0 -3 -3 0zm0 -5l0 3 3 0 0 -3 -3 0zm0 -10l0 3 3 0 0 -3 -3 0zm0 -4l0 2 3 0 0 -2 -3 0zm0 -5l0 3 3 0 0 -3 -3 0zm0 -10l0 3 3 0 0 -3 -3 0zm0 -9l0 2 3 0 0 -2 -3 0zm0 -5l0 3 3 0 0 -3 -3 0zm0 -5l0 3 3 0 0 -3 -3 0zm0 -5l0 3 3 0 0 -3 -3 0zm0 -5l0 3 3 0 0 -3 -3 0zm0 -9l0 3 3 0 0 -3 -3 0zm0 -10l0 3 3 0 0 -3 -3 0zm0 -5l0 3 3 0 0 -3 -3 0zm0 -5l0 3 3 0 0 -3 -3 0zm0 -4l0 3 3 0 0 -3 -3 0zm0 -10l0 3 3 0 0 -3 -3 0zm0 -14l0 3 3 0 0 -3 -3 0zm0 -5l0 3 3 0 0 -3 -3 0zm0 -5l0 3 3 0 0 -3 -3 0zm0 -5l0 3 3 0 0 -3 -3 0zm0 -9l0 3 3 0 0 -3 -3 0zm0 -5l0 3 3 0 0 -3 -3 0zm0 -5l0 3 3 0 0 -3 -3 0zm0 -5l0 3 3 0 0 -3 -3 0zm0 -9l0 3 3 0 0 -3 -3 0zm0 -5l0 3 3 0 0 -3 -3 0zm0 -10l0 3 3 0 0 -3 -3 0zm0 -5l0 3 3 0 0 -3 -3 0zm0 -4l0 2 3 0 0 -2 -3 0zm0 -5l0 3 3 0 0 -3 -3 0zm0 -5l0 3 3 0 0 -3 -3 0zm0 -5l0 3 3 0 0 -3 -3 0zm0 -5l0 3 3 0 0 -3 -3 0zm0 -4l0 2 3 0 0 -2 -3 0zm0 -10l0 3 3 0 0 -3 -3 0zm0 -10l0 3 3 0 0 -3 -3 0 0 0zm0 -4l0 2 3 0 0 -2 -3 0zm0 -15l0 3 3 0 0 -3 -3 0zm0 -5l0 3 3 0 0 -3 -3 0 0 0zm0 -5l0 3 3 0 0 -3 -3 0zm0 -9l0 3 3 0 0 -3 -3 0zm0 -5l0 3 3 0 0 -3 -3 0zm0 -5l0 3 3 0 0 -3 -3 0zm0 -9l0 3 3 0 0 -3 -3 0zm0 -5l0 3 3 0 0 -3 -3 0zm0 -5l0 3 3 0 0 -3 -3 0zm0 -5l0 3 3 0 0 -3 -3 0zm0 -5l0 3 3 0 0 -3 -3 0 0 0zm0 -4l0 3 3 0 0 -3 -3 0 0 0zm0 -5l0 3 3 0 0 -3 -3 0 0 0zm0 -5l0 3 3 0 0 -3 -3 0 0 0zm-5 317l0 3 3 0 0 -3 -3 0zm0 -14l0 3 3 0 0 -3 -3 0zm0 -10l0 3 3 0 0 -3 -3 0zm0 -9l0 2 3 0 0 -2 -3 0zm0 -10l0 3 3 0 0 -3 -3 0zm0 -5l0 3 3 0 0 -3 -3 0zm0 -5l0 3 3 0 0 -3 -3 0zm0 -4l0 2 3 0 0 -2 -3 0zm0 -5l0 3 3 0 0 -3 -3 0zm0 -5l0 3 3 0 0 -3 -3 0zm0 -5l0 3 3 0 0 -3 -3 0zm0 -14l0 3 3 0 0 -3 -3 0zm0 -10l0 3 3 0 0 -3 -3 0zm0 -5l0 3 3 0 0 -3 -3 0zm0 -9l0 3 3 0 0 -3 -3 0zm0 -5l0 3 3 0 0 -3 -3 0zm0 -5l0 3 3 0 0 -3 -3 0zm0 -5l0 3 3 0 0 -3 -3 0zm0 -5l0 3 3 0 0 -3 -3 0zm0 -4l0 3 3 0 0 -3 -3 0zm0 -10l0 3 3 0 0 -3 -3 0zm0 -5l0 3 3 0 0 -3 -3 0zm0 -5l0 3 3 0 0 -3 -3 0zm0 -9l0 3 3 0 0 -3 -3 0zm0 -5l0 3 3 0 0 -3 -3 0zm0 -5l0 3 3 0 0 -3 -3 0zm0 -9l0 2 3 0 0 -2 -3 0zm0 -5l0 3 3 0 0 -3 -3 0zm0 -10l0 3 3 0 0 -3 -3 0zm0 -5l0 3 3 0 0 -3 -3 0zm0 -4l0 2 3 0 0 -2 -3 0zm0 -5l0 3 3 0 0 -3 -3 0zm0 -5l0 3 3 0 0 -3 -3 0zm0 -5l0 3 3 0 0 -3 -3 0zm0 -5l0 3 3 0 0 -3 -3 0 0 0zm0 -4l0 2 3 0 0 -2 -3 0zm0 -10l0 3 3 0 0 -3 -3 0zm0 -5l0 3 3 0 0 -3 -3 0zm0 -5l0 3 3 0 0 -3 -3 0 0 0zm0 -5l0 3 3 0 0 -3 -3 0zm0 -9l0 3 3 0 0 -3 -3 0zm0 -5l0 3 3 0 0 -3 -3 0zm0 -5l0 3 3 0 0 -3 -3 0zm0 -19l0 3 3 0 0 -3 -3 0zm0 -5l0 3 3 0 0 -3 -3 0zm0 -5l0 3 3 0 0 -3 -3 0 0 0zm0 -4l0 3 3 0 0 -3 -3 0 0 0zm0 -5l0 3 3 0 0 -3 -3 0 0 0zm0 -5l0 3 3 0 0 -3 -3 0 0 0zm-4 245l0 3 3 0 0 -3 -3 0zm0 -5l0 3 3 0 0 -3 -3 0zm0 -5l0 3 3 0 0 -3 -3 0zm0 -4l0 3 3 0 0 -3 -3 0zm0 -10l0 3 3 0 0 -3 -3 0zm0 -5l0 3 3 0 0 -3 -3 0zm0 -5l0 3 3 0 0 -3 -3 0zm0 -9l0 3 3 0 0 -3 -3 0zm0 -5l0 3 3 0 0 -3 -3 0zm0 -10l0 3 3 0 0 -3 -3 0zm0 -4l0 3 3 0 0 -3 -3 0zm0 -5l0 3 3 0 0 -3 -3 0zm0 -5l0 3 3 0 0 -3 -3 0zm0 -5l0 3 3 0 0 -3 -3 0zm0 -5l0 3 3 0 0 -3 -3 0zm0 -4l0 3 3 0 0 -3 -3 0zm0 -5l0 3 3 0 0 -3 -3 0zm0 -5l0 3 3 0 0 -3 -3 0zm0 -5l0 3 3 0 0 -3 -3 0zm0 -5l0 3 3 0 0 -3 -3 0zm0 -4l0 2 3 0 0 -2 -3 0zm0 -5l0 3 3 0 0 -3 -3 0zm0 -5l0 3 3 0 0 -3 -3 0zm0 -5l0 3 3 0 0 -3 -3 0zm0 -19l0 3 3 0 0 -3 -3 0zm0 -10l0 3 3 0 0 -3 -3 0 0 0zm0 -4l0 2 3 0 0 -2 -3 0zm0 -5l0 3 3 0 0 -3 -3 0zm0 -5l0 3 3 0 0 -3 -3 0zm0 -15l0 3 3 0 0 -3 -3 0zm0 -4l0 3 3 0 0 -3 -3 0zm0 -10l0 3 3 0 0 -3 -3 0zm0 -5l0 3 3 0 0 -3 -3 0zm0 -5l0 3 3 0 0 -3 -3 0zm0 -4l0 3 3 0 0 -3 -3 0zm0 -5l0 3 3 0 0 -3 -3 0zm0 -5l0 3 3 0 0 -3 -3 0zm0 -5l0 3 3 0 0 -3 -3 0zm0 -5l0 3 3 0 0 -3 -3 0 0 0zm0 -4l0 3 3 0 0 -3 -3 0 0 0zm0 -5l0 3 3 0 0 -3 -3 0 0 0zm0 -5l0 3 3 0 0 -3 -3 0 0 0zm-5 255l0 3 3 0 0 -3 -3 0zm0 -5l0 3 3 0 0 -3 -3 0zm0 -10l0 3 3 0 0 -3 -3 0zm0 -5l0 3 3 0 0 -3 -3 0zm0 -4l0 3 3 0 0 -3 -3 0zm0 -5l0 3 3 0 0 -3 -3 0zm0 -5l0 3 3 0 0 -3 -3 0zm0 -5l0 3 3 0 0 -3 -3 0zm0 -9l0 3 3 0 0 -3 -3 0zm0 -5l0 3 3 0 0 -3 -3 0zm0 -10l0 3 3 0 0 -3 -3 0zm0 -5l0 3 3 0 0 -3 -3 0zm0 -9l0 3 3 0 0 -3 -3 0zm0 -48l0 3 3 0 0 -3 -3 0zm0 -19l0 2 3 0 0 -2 -3 0zm0 -5l0 3 3 0 0 -3 -3 0zm0 -5l0 3 3 0 0 -3 -3 0zm0 -5l0 3 3 0 0 -3 -3 0zm0 -5l0 3 3 0 0 -3 -3 0 0 0zm0 -4l0 2 3 0 0 -2 -3 0zm0 -5l0 3 3 0 0 -3 -3 0zm0 -5l0 3 3 0 0 -3 -3 0zm0 -5l0 3 3 0 0 -3 -3 0zm0 -10l0 3 3 0 0 -3 -3 0zm0 -4l0 3 3 0 0 -3 -3 0zm0 -15l0 3 3 0 0 -3 -3 0zm0 -5l0 3 3 0 0 -3 -3 0zm0 -4l0 3 3 0 0 -3 -3 0zm0 -5l0 3 3 0 0 -3 -3 0zm0 -10l0 3 3 0 0 -3 -3 0zm0 -5l0 3 3 0 0 -3 -3 0 0 0zm0 -4l0 3 3 0 0 -3 -3 0 0 0zm0 -5l0 3 3 0 0 -3 -3 0 0 0zm0 -5l0 3 3 0 0 -3 -3 0 0 0zm-4 293l0 3 3 0 0 -3 -3 0zm0 -9l0 2 3 0 0 -2 -3 0zm0 -15l0 3 3 0 0 -3 -3 0zm0 -5l0 3 3 0 0 -3 -3 0zm0 -14l0 3 3 0 0 -3 -3 0zm0 -5l0 3 3 0 0 -3 -3 0zm0 -5l0 3 3 0 0 -3 -3 0zm0 -5l0 3 3 0 0 -3 -3 0zm0 -9l0 3 3 0 0 -3 -3 0zm0 -10l0 3 3 0 0 -3 -3 0zm0 -5l0 3 3 0 0 -3 -3 0zm0 -4l0 3 3 0 0 -3 -3 0zm0 -5l0 3 3 0 0 -3 -3 0zm0 -5l0 3 3 0 0 -3 -3 0zm0 -5l0 3 3 0 0 -3 -3 0zm0 -5l0 3 3 0 0 -3 -3 0zm0 -33l0 3 3 0 0 -3 -3 0zm0 -5l0 3 3 0 0 -3 -3 0zm0 -10l0 3 3 0 0 -3 -3 0zm0 -4l0 2 3 0 0 -2 -3 0zm0 -5l0 3 3 0 0 -3 -3 0zm0 -10l0 3 3 0 0 -3 -3 0zm0 -5l0 3 3 0 0 -3 -3 0zm0 -4l0 2 3 0 0 -2 -3 0zm0 -5l0 3 3 0 0 -3 -3 0zm0 -5l0 3 3 0 0 -3 -3 0zm0 -10l0 3 3 0 0 -3 -3 0 0 0zm0 -4l0 2 3 0 0 -2 -3 0zm0 -10l0 3 3 0 0 -3 -3 0zm0 -5l0 3 3 0 0 -3 -3 0zm0 -5l0 3 3 0 0 -3 -3 0 0 0zm0 -5l0 3 3 0 0 -3 -3 0zm0 -4l0 3 3 0 0 -3 -3 0zm0 -5l0 3 3 0 0 -3 -3 0zm0 -10l0 3 3 0 0 -3 -3 0zm0 -5l0 3 3 0 0 -3 -3 0zm0 -9l0 3 3 0 0 -3 -3 0zm0 -19l0 3 3 0 0 -3 -3 0 0 0zm0 -5l0 3 3 0 0 -3 -3 0 0 0zm0 -5l0 3 3 0 0 -3 -3 0 0 0zm-5 231l0 3 3 0 0 -3 -3 0zm0 -10l0 3 3 0 0 -3 -3 0zm0 -5l0 3 3 0 0 -3 -3 0zm0 -9l0 3 3 0 0 -3 -3 0zm0 -5l0 3 3 0 0 -3 -3 0zm0 -5l0 3 3 0 0 -3 -3 0zm0 -10l0 3 3 0 0 -3 -3 0zm0 -4l0 3 3 0 0 -3 -3 0zm0 -5l0 3 3 0 0 -3 -3 0zm0 -10l0 3 3 0 0 -3 -3 0zm0 -5l0 3 3 0 0 -3 -3 0zm0 -9l0 3 3 0 0 -3 -3 0zm0 -10l0 3 3 0 0 -3 -3 0zm0 -5l0 3 3 0 0 -3 -3 0zm0 -4l0 2 3 0 0 -2 -3 0zm0 -15l0 3 3 0 0 -3 -3 0zm0 -9l0 2 3 0 0 -2 -3 0zm0 -5l0 3 3 0 0 -3 -3 0zm0 -5l0 3 3 0 0 -3 -3 0zm0 -5l0 3 3 0 0 -3 -3 0zm0 -9l0 2 3 0 0 -2 -3 0zm0 -10l0 3 3 0 0 -3 -3 0zm0 -10l0 3 3 0 0 -3 -3 0 0 0zm0 -5l0 3 3 0 0 -3 -3 0zm0 -4l0 3 3 0 0 -3 -3 0zm0 -5l0 3 3 0 0 -3 -3 0zm0 -5l0 3 3 0 0 -3 -3 0zm0 -5l0 3 3 0 0 -3 -3 0zm0 -5l0 3 3 0 0 -3 -3 0zm0 -4l0 3 3 0 0 -3 -3 0zm0 -5l0 3 3 0 0 -3 -3 0zm0 -10l0 3 3 0 0 -3 -3 0zm0 -5l0 3 3 0 0 -3 -3 0 0 0zm0 -9l0 3 3 0 0 -3 -3 0 0 0zm0 -5l0 3 3 0 0 -3 -3 0 0 0zm-4 279l0 3 3 0 0 -3 -3 0zm0 -10l0 3 3 0 0 -3 -3 0zm0 -29l0 3 3 0 0 -3 -3 0zm0 -9l0 3 3 0 0 -3 -3 0zm0 -10l0 3 3 0 0 -3 -3 0zm0 -10l0 3 3 0 0 -3 -3 0zm0 -4l0 3 3 0 0 -3 -3 0zm0 -10l0 3 3 0 0 -3 -3 0zm0 -5l0 3 3 0 0 -3 -3 0zm0 -5l0 3 3 0 0 -3 -3 0zm0 -4l0 3 3 0 0 -3 -3 0zm0 -5l0 3 3 0 0 -3 -3 0zm0 -5l0 3 3 0 0 -3 -3 0zm0 -5l0 3 3 0 0 -3 -3 0zm0 -5l0 3 3 0 0 -3 -3 0zm0 -4l0 3 3 0 0 -3 -3 0zm0 -5l0 3 3 0 0 -3 -3 0zm0 -5l0 3 3 0 0 -3 -3 0zm0 -10l0 3 3 0 0 -3 -3 0zm0 -4l0 2 3 0 0 -2 -3 0zm0 -15l0 3 3 0 0 -3 -3 0zm0 -5l0 3 3 0 0 -3 -3 0zm0 -9l0 3 3 0 0 -3 -3 0zm0 -5l0 3 3 0 0 -3 -3 0zm0 -5l0 3 3 0 0 -3 -3 0zm0 -5l0 3 3 0 0 -3 -3 0 0 0zm0 -4l0 2 3 0 0 -2 -3 0zm0 -15l0 3 3 0 0 -3 -3 0zm0 -10l0 3 3 0 0 -3 -3 0zm0 -14l0 3 3 0 0 -3 -3 0zm0 -5l0 3 3 0 0 -3 -3 0zm0 -9l0 3 3 0 0 -3 -3 0zm0 -5l0 3 3 0 0 -3 -3 0zm0 -5l0 3 3 0 0 -3 -3 0zm0 -5l0 3 3 0 0 -3 -3 0zm0 -5l0 3 3 0 0 -3 -3 0 0 0zm0 -4l0 3 3 0 0 -3 -3 0 0 0zm0 -5l0 3 3 0 0 -3 -3 0 0 0zm0 -5l0 3 3 0 0 -3 -3 0 0 0zm-5 245l0 3 3 0 0 -3 -3 0zm0 -5l0 3 3 0 0 -3 -3 0zm0 -14l0 3 3 0 0 -3 -3 0zm0 -5l0 3 3 0 0 -3 -3 0zm0 -5l0 3 3 0 0 -3 -3 0zm0 -5l0 3 3 0 0 -3 -3 0zm0 -4l0 3 3 0 0 -3 -3 0zm0 -5l0 3 3 0 0 -3 -3 0zm0 -5l0 3 3 0 0 -3 -3 0zm0 -24l0 3 3 0 0 -3 -3 0zm0 -5l0 3 3 0 0 -3 -3 0zm0 -33l0 2 3 0 0 -2 -3 0zm0 -5l0 3 3 0 0 -3 -3 0zm0 -10l0 3 3 0 0 -3 -3 0zm0 -5l0 3 3 0 0 -3 -3 0zm0 -4l0 2 3 0 0 -2 -3 0zm0 -5l0 3 3 0 0 -3 -3 0zm0 -5l0 3 3 0 0 -3 -3 0zm0 -19l0 3 3 0 0 -3 -3 0zm0 -5l0 3 3 0 0 -3 -3 0zm0 -5l0 3 3 0 0 -3 -3 0zm0 -10l0 3 3 0 0 -3 -3 0zm0 -4l0 3 3 0 0 -3 -3 0zm0 -5l0 3 3 0 0 -3 -3 0zm0 -5l0 3 3 0 0 -3 -3 0zm0 -10l0 3 3 0 0 -3 -3 0zm0 -4l0 3 3 0 0 -3 -3 0zm0 -5l0 3 3 0 0 -3 -3 0zm0 -5l0 3 3 0 0 -3 -3 0zm0 -19l0 3 3 0 0 -3 -3 0 0 0zm0 -5l0 3 3 0 0 -3 -3 0 0 0zm-4 303l0 3 3 0 0 -3 -3 0zm0 -5l0 3 3 0 0 -3 -3 0zm0 -5l0 3 3 0 0 -3 -3 0zm0 -5l0 3 3 0 0 -3 -3 0zm0 -4l0 2 3 0 0 -2 -3 0zm0 -5l0 3 3 0 0 -3 -3 0zm0 -5l0 3 3 0 0 -3 -3 0zm0 -5l0 3 3 0 0 -3 -3 0zm0 -5l0 3 3 0 0 -3 -3 0zm0 -4l0 2 3 0 0 -2 -3 0zm0 -15l0 3 3 0 0 -3 -3 0zm0 -5l0 3 3 0 0 -3 -3 0zm0 -5l0 3 3 0 0 -3 -3 0zm0 -4l0 3 3 0 0 -3 -3 0zm0 -5l0 3 3 0 0 -3 -3 0zm0 -5l0 3 3 0 0 -3 -3 0zm0 -5l0 3 3 0 0 -3 -3 0zm0 -9l0 3 3 0 0 -3 -3 0zm0 -5l0 3 3 0 0 -3 -3 0zm0 -10l0 3 3 0 0 -3 -3 0zm0 -9l0 3 3 0 0 -3 -3 0zm0 -5l0 3 3 0 0 -3 -3 0zm0 -5l0 3 3 0 0 -3 -3 0zm0 -14l0 3 3 0 0 -3 -3 0zm0 -10l0 3 3 0 0 -3 -3 0zm0 -5l0 3 3 0 0 -3 -3 0zm0 -5l0 3 3 0 0 -3 -3 0zm0 -9l0 3 3 0 0 -3 -3 0zm0 -15l0 3 3 0 0 -3 -3 0zm0 -4l0 2 3 0 0 -2 -3 0zm0 -10l0 3 3 0 0 -3 -3 0zm0 -5l0 3 3 0 0 -3 -3 0zm0 -5l0 3 3 0 0 -3 -3 0 0 0zm0 -4l0 2 3 0 0 -2 -3 0zm0 -10l0 3 3 0 0 -3 -3 0zm0 -10l0 3 3 0 0 -3 -3 0 0 0zm0 -14l0 3 3 0 0 -3 -3 0zm0 -5l0 3 3 0 0 -3 -3 0zm0 -10l0 3 3 0 0 -3 -3 0zm0 -4l0 3 3 0 0 -3 -3 0zm0 -10l0 3 3 0 0 -3 -3 0zm0 -5l0 3 3 0 0 -3 -3 0zm0 -5l0 3 3 0 0 -3 -3 0 0 0zm0 -4l0 3 3 0 0 -3 -3 0 0 0zm0 -5l0 3 3 0 0 -3 -3 0 0 0zm0 -5l0 3 3 0 0 -3 -3 0 0 0zm-5 298l0 3 3 0 0 -3 -3 0zm0 -14l0 2 3 0 0 -2 -3 0zm0 -15l0 3 3 0 0 -3 -3 0zm0 -9l0 2 3 0 0 -2 -3 0zm0 -5l0 3 3 0 0 -3 -3 0zm0 -5l0 3 3 0 0 -3 -3 0zm0 -5l0 3 3 0 0 -3 -3 0zm0 -5l0 3 3 0 0 -3 -3 0zm0 -9l0 3 3 0 0 -3 -3 0zm0 -10l0 3 3 0 0 -3 -3 0zm0 -5l0 3 3 0 0 -3 -3 0zm0 -5l0 3 3 0 0 -3 -3 0zm0 -9l0 3 3 0 0 -3 -3 0zm0 -10l0 3 3 0 0 -3 -3 0zm0 -5l0 3 3 0 0 -3 -3 0zm0 -4l0 3 3 0 0 -3 -3 0zm0 -5l0 3 3 0 0 -3 -3 0zm0 -10l0 3 3 0 0 -3 -3 0zm0 -5l0 3 3 0 0 -3 -3 0zm0 -4l0 3 3 0 0 -3 -3 0zm0 -5l0 3 3 0 0 -3 -3 0zm0 -19l0 2 3 0 0 -2 -3 0zm0 -5l0 3 3 0 0 -3 -3 0zm0 -5l0 3 3 0 0 -3 -3 0zm0 -10l0 3 3 0 0 -3 -3 0zm0 -9l0 3 3 0 0 -3 -3 0zm0 -5l0 3 3 0 0 -3 -3 0zm0 -5l0 3 3 0 0 -3 -3 0zm0 -5l0 3 3 0 0 -3 -3 0 0 0zm0 -4l0 2 3 0 0 -2 -3 0zm0 -5l0 3 3 0 0 -3 -3 0zm0 -20l0 3 3 0 0 -3 -3 0zm0 -4l0 3 3 0 0 -3 -3 0zm0 -10l0 3 3 0 0 -3 -3 0zm0 -5l0 3 3 0 0 -3 -3 0zm0 -5l0 3 3 0 0 -3 -3 0zm0 -4l0 3 3 0 0 -3 -3 0zm0 -5l0 3 3 0 0 -3 -3 0zm0 -5l0 3 3 0 0 -3 -3 0zm0 -5l0 3 3 0 0 -3 -3 0zm0 -5l0 3 3 0 0 -3 -3 0 0 0zm0 -4l0 3 3 0 0 -3 -3 0 0 0zm0 -5l0 3 3 0 0 -3 -3 0 0 0zm0 -5l0 3 3 0 0 -3 -3 0 0 0zm-4 211l0 3 3 0 0 -3 -3 0zm0 -4l0 3 3 0 0 -3 -3 0zm0 -10l0 3 3 0 0 -3 -3 0zm0 -10l0 3 3 0 0 -3 -3 0zm0 -33l0 3 3 0 0 -3 -3 0zm0 -5l0 3 3 0 0 -3 -3 0zm0 -5l0 3 3 0 0 -3 -3 0zm0 -5l0 3 3 0 0 -3 -3 0zm0 -4l0 2 3 0 0 -2 -3 0zm0 -5l0 3 3 0 0 -3 -3 0zm0 -5l0 3 3 0 0 -3 -3 0zm0 -14l0 2 3 0 0 -2 -3 0zm0 -5l0 3 3 0 0 -3 -3 0zm0 -5l0 3 3 0 0 -3 -3 0zm0 -5l0 3 3 0 0 -3 -3 0zm0 -14l0 3 3 0 0 -3 -3 0zm0 -5l0 3 3 0 0 -3 -3 0zm0 -5l0 3 3 0 0 -3 -3 0zm0 -5l0 3 3 0 0 -3 -3 0 0 0zm0 -5l0 3 3 0 0 -3 -3 0zm0 -9l0 3 3 0 0 -3 -3 0zm0 -10l0 3 3 0 0 -3 -3 0zm0 -5l0 3 3 0 0 -3 -3 0zm0 -4l0 3 3 0 0 -3 -3 0zm0 -10l0 3 3 0 0 -3 -3 0zm0 -5l0 3 3 0 0 -3 -3 0zm0 -5l0 3 3 0 0 -3 -3 0 0 0zm0 -4l0 3 3 0 0 -3 -3 0 0 0zm0 -5l0 3 3 0 0 -3 -3 0 0 0zm0 -5l0 3 3 0 0 -3 -3 0 0 0zm-5 139l0 3 3 0 0 -3 -3 0zm0 -4l0 2 3 0 0 -2 -3 0zm0 -5l0 3 3 0 0 -3 -3 0zm0 -5l0 3 3 0 0 -3 -3 0zm0 -5l0 3 3 0 0 -3 -3 0zm0 -5l0 3 3 0 0 -3 -3 0zm0 -9l0 3 3 0 0 -3 -3 0zm0 -15l0 3 3 0 0 -3 -3 0zm0 -4l0 2 3 0 0 -2 -3 0zm0 -10l0 3 3 0 0 -3 -3 0zm0 -5l0 3 3 0 0 -3 -3 0zm0 -5l0 3 3 0 0 -3 -3 0 0 0zm0 -5l0 3 3 0 0 -3 -3 0zm0 -9l0 3 3 0 0 -3 -3 0zm0 -5l0 3 3 0 0 -3 -3 0zm0 -10l0 3 3 0 0 -3 -3 0zm0 -4l0 3 3 0 0 -3 -3 0zm0 -5l0 3 3 0 0 -3 -3 0zm0 -5l0 3 3 0 0 -3 -3 0zm0 -5l0 3 3 0 0 -3 -3 0zm0 -5l0 3 3 0 0 -3 -3 0 0 0zm0 -4l0 3 3 0 0 -3 -3 0 0 0zm0 -5l0 3 3 0 0 -3 -3 0 0 0zm0 -5l0 3 3 0 0 -3 -3 0 0 0zm-4 322l0 3 3 0 0 -3 -3 0zm0 -10l0 3 3 0 0 -3 -3 0zm0 -9l0 3 3 0 0 -3 -3 0zm0 -5l0 3 3 0 0 -3 -3 0zm0 -24l0 3 3 0 0 -3 -3 0zm0 -5l0 3 3 0 0 -3 -3 0zm0 -5l0 3 3 0 0 -3 -3 0zm0 -4l0 2 3 0 0 -2 -3 0zm0 -10l0 3 3 0 0 -3 -3 0zm0 -5l0 3 3 0 0 -3 -3 0zm0 -5l0 3 3 0 0 -3 -3 0zm0 -5l0 3 3 0 0 -3 -3 0zm0 -4l0 3 3 0 0 -3 -3 0zm0 -5l0 3 3 0 0 -3 -3 0zm0 -10l0 3 3 0 0 -3 -3 0zm0 -5l0 3 3 0 0 -3 -3 0zm0 -9l0 3 3 0 0 -3 -3 0zm0 -5l0 3 3 0 0 -3 -3 0zm0 -5l0 3 3 0 0 -3 -3 0zm0 -5l0 3 3 0 0 -3 -3 0zm0 -4l0 3 3 0 0 -3 -3 0zm0 -10l0 3 3 0 0 -3 -3 0zm0 -5l0 3 3 0 0 -3 -3 0zm0 -9l0 3 3 0 0 -3 -3 0zm0 -5l0 3 3 0 0 -3 -3 0zm0 -19l0 2 3 0 0 -2 -3 0zm0 -15l0 3 3 0 0 -3 -3 0zm0 -9l0 2 3 0 0 -2 -3 0zm0 -5l0 3 3 0 0 -3 -3 0zm0 -24l0 3 3 0 0 -3 -3 0zm0 -5l0 3 3 0 0 -3 -3 0zm0 -5l0 3 3 0 0 -3 -3 0zm0 -10l0 3 3 0 0 -3 -3 0zm0 -9l0 3 3 0 0 -3 -3 0zm0 -5l0 3 3 0 0 -3 -3 0zm0 -5l0 3 3 0 0 -3 -3 0zm0 -5l0 3 3 0 0 -3 -3 0zm0 -4l0 3 3 0 0 -3 -3 0zm0 -5l0 3 3 0 0 -3 -3 0zm0 -5l0 3 3 0 0 -3 -3 0zm0 -5l0 3 3 0 0 -3 -3 0zm0 -5l0 3 3 0 0 -3 -3 0 0 0zm0 -4l0 3 3 0 0 -3 -3 0 0 0zm0 -5l0 3 3 0 0 -3 -3 0 0 0zm0 -5l0 3 3 0 0 -3 -3 0 0 0zm-5 312l0 3 3 0 0 -3 -3 0zm0 -24l0 3 3 0 0 -3 -3 0zm0 -4l0 2 3 0 0 -2 -3 0zm0 -24l0 2 3 0 0 -2 -3 0zm0 -5l0 3 3 0 0 -3 -3 0zm0 -5l0 3 3 0 0 -3 -3 0zm0 -10l0 3 3 0 0 -3 -3 0zm0 -9l0 3 3 0 0 -3 -3 0zm0 -5l0 3 3 0 0 -3 -3 0zm0 -5l0 3 3 0 0 -3 -3 0zm0 -5l0 3 3 0 0 -3 -3 0zm0 -9l0 3 3 0 0 -3 -3 0zm0 -5l0 3 3 0 0 -3 -3 0zm0 -10l0 3 3 0 0 -3 -3 0zm0 -9l0 3 3 0 0 -3 -3 0zm0 -5l0 3 3 0 0 -3 -3 0zm0 -5l0 3 3 0 0 -3 -3 0zm0 -5l0 3 3 0 0 -3 -3 0zm0 -5l0 3 3 0 0 -3 -3 0zm0 -4l0 3 3 0 0 -3 -3 0zm0 -5l0 3 3 0 0 -3 -3 0zm0 -5l0 3 3 0 0 -3 -3 0zm0 -10l0 3 3 0 0 -3 -3 0zm0 -4l0 2 3 0 0 -2 -3 0zm0 -5l0 3 3 0 0 -3 -3 0zm0 -5l0 3 3 0 0 -3 -3 0zm0 -10l0 3 3 0 0 -3 -3 0zm0 -4l0 2 3 0 0 -2 -3 0zm0 -5l0 3 3 0 0 -3 -3 0zm0 -10l0 3 3 0 0 -3 -3 0zm0 -5l0 3 3 0 0 -3 -3 0zm0 -4l0 2 3 0 0 -2 -3 0zm0 -5l0 3 3 0 0 -3 -3 0zm0 -5l0 3 3 0 0 -3 -3 0zm0 -5l0 3 3 0 0 -3 -3 0zm0 -5l0 3 3 0 0 -3 -3 0 0 0zm0 -5l0 3 3 0 0 -3 -3 0zm0 -4l0 3 3 0 0 -3 -3 0zm0 -5l0 3 3 0 0 -3 -3 0zm0 -5l0 3 3 0 0 -3 -3 0zm0 -5l0 3 3 0 0 -3 -3 0zm0 -5l0 3 3 0 0 -3 -3 0zm0 -4l0 3 3 0 0 -3 -3 0zm0 -5l0 3 3 0 0 -3 -3 0zm0 -5l0 3 3 0 0 -3 -3 0zm0 -5l0 3 3 0 0 -3 -3 0zm0 -5l0 3 3 0 0 -3 -3 0 0 0zm0 -4l0 3 3 0 0 -3 -3 0 0 0zm0 -5l0 3 3 0 0 -3 -3 0 0 0zm0 -5l0 3 3 0 0 -3 -3 0 0 0zm-4 284l0 2 3 0 0 -2 -3 0zm0 -5l0 3 3 0 0 -3 -3 0zm0 -10l0 3 3 0 0 -3 -3 0zm0 -5l0 3 3 0 0 -3 -3 0zm0 -14l0 3 3 0 0 -3 -3 0zm0 -5l0 3 3 0 0 -3 -3 0zm0 -14l0 3 3 0 0 -3 -3 0zm0 -10l0 3 3 0 0 -3 -3 0zm0 -5l0 3 3 0 0 -3 -3 0zm0 -5l0 3 3 0 0 -3 -3 0zm0 -9l0 3 3 0 0 -3 -3 0zm0 -5l0 3 3 0 0 -3 -3 0zm0 -10l0 3 3 0 0 -3 -3 0zm0 -4l0 3 3 0 0 -3 -3 0zm0 -10l0 3 3 0 0 -3 -3 0zm0 -5l0 3 3 0 0 -3 -3 0zm0 -5l0 3 3 0 0 -3 -3 0zm0 -9l0 3 3 0 0 -3 -3 0zm0 -10l0 3 3 0 0 -3 -3 0zm0 -9l0 2 3 0 0 -2 -3 0zm0 -15l0 3 3 0 0 -3 -3 0zm0 -5l0 3 3 0 0 -3 -3 0zm0 -14l0 3 3 0 0 -3 -3 0zm0 -14l0 2 3 0 0 -2 -3 0zm0 -5l0 3 3 0 0 -3 -3 0zm0 -5l0 3 3 0 0 -3 -3 0zm0 -5l0 3 3 0 0 -3 -3 0zm0 -5l0 3 3 0 0 -3 -3 0 0 0zm0 -5l0 3 3 0 0 -3 -3 0zm0 -4l0 3 3 0 0 -3 -3 0zm0 -5l0 3 3 0 0 -3 -3 0zm0 -5l0 3 3 0 0 -3 -3 0zm0 -5l0 3 3 0 0 -3 -3 0zm0 -5l0 3 3 0 0 -3 -3 0zm0 -4l0 3 3 0 0 -3 -3 0zm0 -5l0 3 3 0 0 -3 -3 0zm0 -5l0 3 3 0 0 -3 -3 0zm0 -5l0 3 3 0 0 -3 -3 0zm0 -5l0 3 3 0 0 -3 -3 0 0 0zm0 -4l0 3 3 0 0 -3 -3 0 0 0zm0 -5l0 3 3 0 0 -3 -3 0 0 0zm0 -5l0 3 3 0 0 -3 -3 0 0 0zm-5 284l0 2 3 0 0 -2 -3 0zm0 -5l0 3 3 0 0 -3 -3 0zm0 -5l0 3 3 0 0 -3 -3 0zm0 -10l0 3 3 0 0 -3 -3 0zm0 -4l0 2 3 0 0 -2 -3 0zm0 -20l0 3 3 0 0 -3 -3 0zm0 -5l0 3 3 0 0 -3 -3 0zm0 -14l0 3 3 0 0 -3 -3 0zm0 -14l0 3 3 0 0 -3 -3 0zm0 -15l0 3 3 0 0 -3 -3 0zm0 -14l0 3 3 0 0 -3 -3 0zm0 -5l0 3 3 0 0 -3 -3 0zm0 -5l0 3 3 0 0 -3 -3 0zm0 -5l0 3 3 0 0 -3 -3 0zm0 -4l0 3 3 0 0 -3 -3 0zm0 -5l0 3 3 0 0 -3 -3 0zm0 -5l0 3 3 0 0 -3 -3 0zm0 -10l0 3 3 0 0 -3 -3 0zm0 -24l0 3 3 0 0 -3 -3 0zm0 -4l0 2 3 0 0 -2 -3 0zm0 -5l0 3 3 0 0 -3 -3 0zm0 -5l0 3 3 0 0 -3 -3 0zm0 -5l0 3 3 0 0 -3 -3 0zm0 -5l0 3 3 0 0 -3 -3 0zm0 -4l0 2 3 0 0 -2 -3 0zm0 -10l0 3 3 0 0 -3 -3 0zm0 -5l0 3 3 0 0 -3 -3 0zm0 -5l0 3 3 0 0 -3 -3 0 0 0zm0 -5l0 3 3 0 0 -3 -3 0zm0 -4l0 3 3 0 0 -3 -3 0zm0 -5l0 3 3 0 0 -3 -3 0zm0 -5l0 3 3 0 0 -3 -3 0zm0 -5l0 3 3 0 0 -3 -3 0zm0 -5l0 3 3 0 0 -3 -3 0zm0 -4l0 3 3 0 0 -3 -3 0zm0 -5l0 3 3 0 0 -3 -3 0zm0 -5l0 3 3 0 0 -3 -3 0zm0 -5l0 3 3 0 0 -3 -3 0zm0 -5l0 3 3 0 0 -3 -3 0 0 0zm0 -4l0 3 3 0 0 -3 -3 0 0 0zm0 -5l0 3 3 0 0 -3 -3 0 0 0zm0 -5l0 3 3 0 0 -3 -3 0 0 0zm-4 226l0 3 3 0 0 -3 -3 0zm0 -15l0 3 3 0 0 -3 -3 0zm0 -4l0 3 3 0 0 -3 -3 0zm0 -5l0 3 3 0 0 -3 -3 0zm0 -5l0 3 3 0 0 -3 -3 0zm0 -10l0 3 3 0 0 -3 -3 0zm0 -4l0 3 3 0 0 -3 -3 0zm0 -15l0 3 3 0 0 -3 -3 0zm0 -5l0 3 3 0 0 -3 -3 0zm0 -19l0 3 3 0 0 -3 -3 0zm0 -5l0 3 3 0 0 -3 -3 0zm0 -9l0 3 3 0 0 -3 -3 0zm0 -15l0 3 3 0 0 -3 -3 0zm0 -4l0 2 3 0 0 -2 -3 0zm0 -10l0 3 3 0 0 -3 -3 0zm0 -10l0 3 3 0 0 -3 -3 0zm0 -4l0 2 3 0 0 -2 -3 0zm0 -5l0 3 3 0 0 -3 -3 0zm0 -5l0 3 3 0 0 -3 -3 0zm0 -5l0 3 3 0 0 -3 -3 0zm0 -5l0 3 3 0 0 -3 -3 0 0 0zm0 -5l0 3 3 0 0 -3 -3 0zm0 -4l0 3 3 0 0 -3 -3 0zm0 -5l0 3 3 0 0 -3 -3 0zm0 -5l0 3 3 0 0 -3 -3 0zm0 -5l0 3 3 0 0 -3 -3 0zm0 -5l0 3 3 0 0 -3 -3 0zm0 -4l0 3 3 0 0 -3 -3 0zm0 -5l0 3 3 0 0 -3 -3 0zm0 -5l0 3 3 0 0 -3 -3 0zm0 -5l0 3 3 0 0 -3 -3 0zm0 -5l0 3 3 0 0 -3 -3 0 0 0zm0 -4l0 3 3 0 0 -3 -3 0 0 0zm0 -10l0 3 3 0 0 -3 -3 0 0 0zm-4 221l0 3 2 0 0 -3 -2 0zm0 -19l0 3 2 0 0 -3 -2 0zm0 -10l0 3 2 0 0 -3 -2 0zm0 -5l0 3 2 0 0 -3 -2 0zm0 -9l0 3 2 0 0 -3 -2 0zm0 -15l0 3 2 0 0 -3 -2 0zm0 -4l0 3 2 0 0 -3 -2 0zm0 -5l0 3 2 0 0 -3 -2 0zm0 -15l0 3 2 0 0 -3 -2 0zm0 -24l0 3 2 0 0 -3 -2 0zm0 -9l0 3 2 0 0 -3 -2 0zm0 -5l0 3 2 0 0 -3 -2 0zm0 -5l0 3 2 0 0 -3 -2 0zm0 -5l0 3 2 0 0 -3 -2 0zm0 -4l0 2 2 0 0 -2 -2 0zm0 -10l0 3 2 0 0 -3 -2 0zm0 -5l0 3 2 0 0 -3 -2 0zm0 -5l0 3 2 0 0 -3 -2 0 0 0zm0 -9l0 3 2 0 0 -3 -2 0zm0 -10l0 3 2 0 0 -3 -2 0zm0 -5l0 3 2 0 0 -3 -2 0zm0 -5l0 3 2 0 0 -3 -2 0zm0 -4l0 3 2 0 0 -3 -2 0zm0 -5l0 3 2 0 0 -3 -2 0zm0 -5l0 3 2 0 0 -3 -2 0zm0 -5l0 3 2 0 0 -3 -2 0zm0 -5l0 3 2 0 0 -3 -2 0 0 0zm0 -4l0 3 2 0 0 -3 -2 0 0 0zm0 -5l0 3 2 0 0 -3 -2 0 0 0zm0 -5l0 3 2 0 0 -3 -2 0 0 0zm-5 226l0 3 3 0 0 -3 -3 0zm0 -5l0 3 3 0 0 -3 -3 0zm0 -5l0 3 3 0 0 -3 -3 0zm0 -9l0 3 3 0 0 -3 -3 0zm0 -10l0 3 3 0 0 -3 -3 0zm0 -24l0 3 3 0 0 -3 -3 0zm0 -10l0 3 3 0 0 -3 -3 0zm0 -14l0 3 3 0 0 -3 -3 0zm0 -10l0 3 3 0 0 -3 -3 0zm0 -4l0 2 3 0 0 -2 -3 0zm0 -10l0 3 3 0 0 -3 -3 0zm0 -5l0 3 3 0 0 -3 -3 0zm0 -5l0 3 3 0 0 -3 -3 0zm0 -4l0 2 3 0 0 -2 -3 0zm0 -5l0 3 3 0 0 -3 -3 0zm0 -5l0 3 3 0 0 -3 -3 0zm0 -14l0 2 3 0 0 -2 -3 0zm0 -5l0 3 3 0 0 -3 -3 0zm0 -5l0 3 3 0 0 -3 -3 0zm0 -5l0 3 3 0 0 -3 -3 0zm0 -5l0 3 3 0 0 -3 -3 0 0 0zm0 -5l0 3 3 0 0 -3 -3 0zm0 -4l0 3 3 0 0 -3 -3 0zm0 -5l0 3 3 0 0 -3 -3 0zm0 -5l0 3 3 0 0 -3 -3 0zm0 -5l0 3 3 0 0 -3 -3 0zm0 -5l0 3 3 0 0 -3 -3 0zm0 -4l0 3 3 0 0 -3 -3 0zm0 -5l0 3 3 0 0 -3 -3 0zm0 -5l0 3 3 0 0 -3 -3 0zm0 -5l0 3 3 0 0 -3 -3 0zm0 -5l0 3 3 0 0 -3 -3 0 0 0zm0 -4l0 3 3 0 0 -3 -3 0 0 0zm0 -5l0 3 3 0 0 -3 -3 0 0 0zm0 -5l0 3 3 0 0 -3 -3 0 0 0zm-4 168l0 3 2 0 0 -3 -2 0zm0 -14l0 3 2 0 0 -3 -2 0zm0 -19l0 2 2 0 0 -2 -2 0zm0 -10l0 3 2 0 0 -3 -2 0zm0 -14l0 2 2 0 0 -2 -2 0zm0 -5l0 3 2 0 0 -3 -2 0zm0 -5l0 3 2 0 0 -3 -2 0zm0 -5l0 3 2 0 0 -3 -2 0zm0 -9l0 2 2 0 0 -2 -2 0zm0 -10l0 3 2 0 0 -3 -2 0zm0 -5l0 3 2 0 0 -3 -2 0zm0 -5l0 3 2 0 0 -3 -2 0 0 0zm0 -5l0 3 2 0 0 -3 -2 0zm0 -4l0 3 2 0 0 -3 -2 0zm0 -5l0 3 2 0 0 -3 -2 0zm0 -5l0 3 2 0 0 -3 -2 0zm0 -5l0 3 2 0 0 -3 -2 0zm0 -5l0 3 2 0 0 -3 -2 0zm0 -4l0 3 2 0 0 -3 -2 0zm0 -5l0 3 2 0 0 -3 -2 0zm0 -5l0 3 2 0 0 -3 -2 0zm0 -5l0 3 2 0 0 -3 -2 0zm0 -5l0 3 2 0 0 -3 -2 0 0 0zm0 -4l0 3 2 0 0 -3 -2 0 0 0zm0 -5l0 3 2 0 0 -3 -2 0 0 0zm0 -5l0 3 2 0 0 -3 -2 0 0 0zm-5 221l0 3 3 0 0 -3 -3 0zm0 -5l0 3 3 0 0 -3 -3 0zm0 -9l0 3 3 0 0 -3 -3 0zm0 -10l0 3 3 0 0 -3 -3 0zm0 -10l0 3 3 0 0 -3 -3 0zm0 -14l0 3 3 0 0 -3 -3 0zm0 -19l0 3 3 0 0 -3 -3 0zm0 -5l0 3 3 0 0 -3 -3 0zm0 -10l0 3 3 0 0 -3 -3 0zm0 -9l0 3 3 0 0 -3 -3 0zm0 -5l0 3 3 0 0 -3 -3 0zm0 -24l0 3 3 0 0 -3 -3 0zm0 -5l0 3 3 0 0 -3 -3 0zm0 -5l0 3 3 0 0 -3 -3 0zm0 -4l0 2 3 0 0 -2 -3 0zm0 -10l0 3 3 0 0 -3 -3 0zm0 -10l0 3 3 0 0 -3 -3 0 0 0zm0 -5l0 3 3 0 0 -3 -3 0zm0 -4l0 3 3 0 0 -3 -3 0zm0 -10l0 3 3 0 0 -3 -3 0zm0 -5l0 3 3 0 0 -3 -3 0zm0 -5l0 3 3 0 0 -3 -3 0zm0 -4l0 3 3 0 0 -3 -3 0zm0 -5l0 3 3 0 0 -3 -3 0zm0 -5l0 3 3 0 0 -3 -3 0zm0 -5l0 3 3 0 0 -3 -3 0zm0 -5l0 3 3 0 0 -3 -3 0 0 0zm0 -4l0 3 3 0 0 -3 -3 0 0 0zm0 -5l0 3 3 0 0 -3 -3 0 0 0zm0 -5l0 3 3 0 0 -3 -3 0 0 0zm-4 226l0 3 2 0 0 -3 -2 0zm0 -5l0 3 2 0 0 -3 -2 0zm0 -5l0 3 2 0 0 -3 -2 0zm0 -5l0 3 2 0 0 -3 -2 0zm0 -28l0 3 2 0 0 -3 -2 0zm0 -10l0 3 2 0 0 -3 -2 0zm0 -19l0 3 2 0 0 -3 -2 0zm0 -19l0 2 2 0 0 -2 -2 0zm0 -15l0 3 2 0 0 -3 -2 0zm0 -5l0 3 2 0 0 -3 -2 0zm0 -4l0 2 2 0 0 -2 -2 0zm0 -5l0 3 2 0 0 -3 -2 0zm0 -5l0 3 2 0 0 -3 -2 0zm0 -5l0 3 2 0 0 -3 -2 0zm0 -5l0 3 2 0 0 -3 -2 0zm0 -4l0 2 2 0 0 -2 -2 0zm0 -5l0 3 2 0 0 -3 -2 0zm0 -5l0 3 2 0 0 -3 -2 0zm0 -5l0 3 2 0 0 -3 -2 0zm0 -5l0 3 2 0 0 -3 -2 0 0 0zm0 -5l0 3 2 0 0 -3 -2 0zm0 -9l0 3 2 0 0 -3 -2 0zm0 -10l0 3 2 0 0 -3 -2 0zm0 -5l0 3 2 0 0 -3 -2 0zm0 -4l0 3 2 0 0 -3 -2 0zm0 -5l0 3 2 0 0 -3 -2 0zm0 -5l0 3 2 0 0 -3 -2 0zm0 -5l0 3 2 0 0 -3 -2 0zm0 -5l0 3 2 0 0 -3 -2 0 0 0zm0 -4l0 3 2 0 0 -3 -2 0 0 0zm0 -5l0 3 2 0 0 -3 -2 0 0 0zm0 -5l0 3 2 0 0 -3 -2 0 0 0zm-5 178l0 3 3 0 0 -3 -3 0zm0 -15l0 3 3 0 0 -3 -3 0zm0 -9l0 3 3 0 0 -3 -3 0zm0 -10l0 3 3 0 0 -3 -3 0zm0 -29l0 3 3 0 0 -3 -3 0zm0 -4l0 2 3 0 0 -2 -3 0zm0 -5l0 3 3 0 0 -3 -3 0zm0 -5l0 3 3 0 0 -3 -3 0zm0 -5l0 3 3 0 0 -3 -3 0zm0 -5l0 3 3 0 0 -3 -3 0zm0 -4l0 2 3 0 0 -2 -3 0zm0 -5l0 3 3 0 0 -3 -3 0zm0 -5l0 3 3 0 0 -3 -3 0zm0 -5l0 3 3 0 0 -3 -3 0zm0 -10l0 3 3 0 0 -3 -3 0zm0 -4l0 3 3 0 0 -3 -3 0zm0 -5l0 3 3 0 0 -3 -3 0zm0 -10l0 3 3 0 0 -3 -3 0zm0 -5l0 3 3 0 0 -3 -3 0zm0 -4l0 3 3 0 0 -3 -3 0zm0 -5l0 3 3 0 0 -3 -3 0zm0 -5l0 3 3 0 0 -3 -3 0zm0 -5l0 3 3 0 0 -3 -3 0zm0 -5l0 3 3 0 0 -3 -3 0 0 0zm0 -4l0 3 3 0 0 -3 -3 0 0 0zm0 -5l0 3 3 0 0 -3 -3 0 0 0zm0 -5l0 3 3 0 0 -3 -3 0 0 0zm-4 255l0 3 2 0 0 -3 -2 0zm0 -15l0 3 2 0 0 -3 -2 0zm0 -14l0 3 2 0 0 -3 -2 0zm0 -10l0 3 2 0 0 -3 -2 0zm0 -19l0 3 2 0 0 -3 -2 0zm0 -5l0 3 2 0 0 -3 -2 0zm0 -9l0 3 2 0 0 -3 -2 0zm0 -15l0 3 2 0 0 -3 -2 0zm0 -5l0 3 2 0 0 -3 -2 0zm0 -14l0 3 2 0 0 -3 -2 0zm0 -5l0 3 2 0 0 -3 -2 0zm0 -5l0 3 2 0 0 -3 -2 0zm0 -9l0 3 2 0 0 -3 -2 0zm0 -5l0 3 2 0 0 -3 -2 0zm0 -10l0 3 2 0 0 -3 -2 0zm0 -4l0 2 2 0 0 -2 -2 0zm0 -5l0 3 2 0 0 -3 -2 0zm0 -15l0 3 2 0 0 -3 -2 0zm0 -14l0 3 2 0 0 -3 -2 0zm0 -10l0 3 2 0 0 -3 -2 0 0 0zm0 -5l0 3 2 0 0 -3 -2 0zm0 -4l0 3 2 0 0 -3 -2 0zm0 -5l0 3 2 0 0 -3 -2 0zm0 -5l0 3 2 0 0 -3 -2 0zm0 -5l0 3 2 0 0 -3 -2 0zm0 -5l0 3 2 0 0 -3 -2 0zm0 -4l0 3 2 0 0 -3 -2 0zm0 -5l0 3 2 0 0 -3 -2 0zm0 -5l0 3 2 0 0 -3 -2 0zm0 -5l0 3 2 0 0 -3 -2 0zm0 -5l0 3 2 0 0 -3 -2 0 0 0zm0 -4l0 3 2 0 0 -3 -2 0 0 0zm0 -5l0 3 2 0 0 -3 -2 0 0 0zm0 -5l0 3 2 0 0 -3 -2 0 0 0zm-5 240l0 3 3 0 0 -3 -3 0zm0 -5l0 3 3 0 0 -3 -3 0zm0 -4l0 3 3 0 0 -3 -3 0zm0 -10l0 3 3 0 0 -3 -3 0zm0 -5l0 3 3 0 0 -3 -3 0zm0 -5l0 3 3 0 0 -3 -3 0zm0 -9l0 3 3 0 0 -3 -3 0zm0 -15l0 3 3 0 0 -3 -3 0zm0 -4l0 3 3 0 0 -3 -3 0zm0 -10l0 3 3 0 0 -3 -3 0zm0 -10l0 3 3 0 0 -3 -3 0zm0 -4l0 3 3 0 0 -3 -3 0zm0 -10l0 3 3 0 0 -3 -3 0zm0 -10l0 3 3 0 0 -3 -3 0zm0 -4l0 2 3 0 0 -2 -3 0zm0 -5l0 3 3 0 0 -3 -3 0zm0 -5l0 3 3 0 0 -3 -3 0zm0 -5l0 3 3 0 0 -3 -3 0zm0 -5l0 3 3 0 0 -3 -3 0zm0 -4l0 2 3 0 0 -2 -3 0zm0 -5l0 3 3 0 0 -3 -3 0zm0 -5l0 3 3 0 0 -3 -3 0zm0 -5l0 3 3 0 0 -3 -3 0zm0 -5l0 3 3 0 0 -3 -3 0zm0 -4l0 2 3 0 0 -2 -3 0zm0 -5l0 3 3 0 0 -3 -3 0zm0 -5l0 3 3 0 0 -3 -3 0zm0 -15l0 3 3 0 0 -3 -3 0zm0 -4l0 3 3 0 0 -3 -3 0zm0 -5l0 3 3 0 0 -3 -3 0zm0 -5l0 3 3 0 0 -3 -3 0zm0 -5l0 3 3 0 0 -3 -3 0zm0 -5l0 3 3 0 0 -3 -3 0zm0 -4l0 3 3 0 0 -3 -3 0zm0 -5l0 3 3 0 0 -3 -3 0zm0 -5l0 3 3 0 0 -3 -3 0zm0 -5l0 3 3 0 0 -3 -3 0zm0 -5l0 3 3 0 0 -3 -3 0 0 0zm0 -4l0 3 3 0 0 -3 -3 0 0 0zm0 -5l0 3 3 0 0 -3 -3 0 0 0zm0 -5l0 3 3 0 0 -3 -3 0 0 0zm-4 202l0 3 2 0 0 -3 -2 0zm0 -5l0 3 2 0 0 -3 -2 0zm0 -5l0 3 2 0 0 -3 -2 0zm0 -5l0 3 2 0 0 -3 -2 0zm0 -14l0 3 2 0 0 -3 -2 0zm0 -5l0 3 2 0 0 -3 -2 0zm0 -5l0 3 2 0 0 -3 -2 0zm0 -4l0 3 2 0 0 -3 -2 0zm0 -5l0 3 2 0 0 -3 -2 0zm0 -5l0 3 2 0 0 -3 -2 0zm0 -5l0 3 2 0 0 -3 -2 0zm0 -5l0 3 2 0 0 -3 -2 0zm0 -4l0 2 2 0 0 -2 -2 0zm0 -5l0 3 2 0 0 -3 -2 0zm0 -5l0 3 2 0 0 -3 -2 0zm0 -5l0 3 2 0 0 -3 -2 0zm0 -5l0 3 2 0 0 -3 -2 0zm0 -4l0 2 2 0 0 -2 -2 0zm0 -5l0 3 2 0 0 -3 -2 0zm0 -5l0 3 2 0 0 -3 -2 0zm0 -5l0 3 2 0 0 -3 -2 0zm0 -5l0 3 2 0 0 -3 -2 0zm0 -4l0 2 2 0 0 -2 -2 0zm0 -10l0 3 2 0 0 -3 -2 0zm0 -5l0 3 2 0 0 -3 -2 0zm0 -5l0 3 2 0 0 -3 -2 0 0 0zm0 -5l0 3 2 0 0 -3 -2 0zm0 -4l0 3 2 0 0 -3 -2 0zm0 -5l0 3 2 0 0 -3 -2 0zm0 -5l0 3 2 0 0 -3 -2 0zm0 -5l0 3 2 0 0 -3 -2 0zm0 -5l0 3 2 0 0 -3 -2 0zm0 -4l0 3 2 0 0 -3 -2 0zm0 -5l0 3 2 0 0 -3 -2 0zm0 -5l0 3 2 0 0 -3 -2 0zm0 -5l0 3 2 0 0 -3 -2 0zm0 -5l0 3 2 0 0 -3 -2 0 0 0zm0 -4l0 3 2 0 0 -3 -2 0 0 0zm0 -5l0 3 2 0 0 -3 -2 0 0 0zm0 -5l0 3 2 0 0 -3 -2 0 0 0zm-5 221l0 3 3 0 0 -3 -3 0zm0 -5l0 3 3 0 0 -3 -3 0zm0 -19l0 3 3 0 0 -3 -3 0zm0 -5l0 3 3 0 0 -3 -3 0zm0 -5l0 3 3 0 0 -3 -3 0zm0 -4l0 3 3 0 0 -3 -3 0zm0 -5l0 3 3 0 0 -3 -3 0zm0 -5l0 3 3 0 0 -3 -3 0zm0 -5l0 3 3 0 0 -3 -3 0zm0 -5l0 3 3 0 0 -3 -3 0zm0 -4l0 3 3 0 0 -3 -3 0zm0 -5l0 3 3 0 0 -3 -3 0zm0 -5l0 3 3 0 0 -3 -3 0zm0 -5l0 3 3 0 0 -3 -3 0zm0 -5l0 3 3 0 0 -3 -3 0zm0 -9l0 3 3 0 0 -3 -3 0zm0 -5l0 3 3 0 0 -3 -3 0zm0 -5l0 3 3 0 0 -3 -3 0zm0 -5l0 3 3 0 0 -3 -3 0zm0 -4l0 2 3 0 0 -2 -3 0zm0 -15l0 3 3 0 0 -3 -3 0zm0 -5l0 3 3 0 0 -3 -3 0zm0 -4l0 2 3 0 0 -2 -3 0zm0 -5l0 3 3 0 0 -3 -3 0zm0 -5l0 3 3 0 0 -3 -3 0zm0 -5l0 3 3 0 0 -3 -3 0zm0 -5l0 3 3 0 0 -3 -3 0 0 0zm0 -5l0 3 3 0 0 -3 -3 0zm0 -9l0 3 3 0 0 -3 -3 0zm0 -5l0 3 3 0 0 -3 -3 0zm0 -5l0 3 3 0 0 -3 -3 0zm0 -5l0 3 3 0 0 -3 -3 0zm0 -4l0 3 3 0 0 -3 -3 0zm0 -5l0 3 3 0 0 -3 -3 0zm0 -5l0 3 3 0 0 -3 -3 0zm0 -5l0 3 3 0 0 -3 -3 0zm0 -5l0 3 3 0 0 -3 -3 0 0 0zm0 -4l0 3 3 0 0 -3 -3 0 0 0zm0 -5l0 3 3 0 0 -3 -3 0 0 0zm0 -5l0 3 3 0 0 -3 -3 0 0 0zm-4 279l0 3 2 0 0 -3 -2 0zm0 -5l0 3 2 0 0 -3 -2 0zm0 -5l0 3 2 0 0 -3 -2 0zm0 -9l0 2 2 0 0 -2 -2 0zm0 -10l0 3 2 0 0 -3 -2 0zm0 -10l0 3 2 0 0 -3 -2 0zm0 -24l0 3 2 0 0 -3 -2 0zm0 -24l0 3 2 0 0 -3 -2 0zm0 -5l0 3 2 0 0 -3 -2 0zm0 -4l0 3 2 0 0 -3 -2 0zm0 -5l0 3 2 0 0 -3 -2 0zm0 -5l0 3 2 0 0 -3 -2 0zm0 -5l0 3 2 0 0 -3 -2 0zm0 -5l0 3 2 0 0 -3 -2 0zm0 -4l0 3 2 0 0 -3 -2 0zm0 -5l0 3 2 0 0 -3 -2 0zm0 -5l0 3 2 0 0 -3 -2 0zm0 -10l0 3 2 0 0 -3 -2 0zm0 -4l0 2 2 0 0 -2 -2 0zm0 -5l0 3 2 0 0 -3 -2 0zm0 -5l0 3 2 0 0 -3 -2 0zm0 -5l0 3 2 0 0 -3 -2 0zm0 -5l0 3 2 0 0 -3 -2 0zm0 -4l0 2 2 0 0 -2 -2 0zm0 -5l0 3 2 0 0 -3 -2 0zm0 -5l0 3 2 0 0 -3 -2 0zm0 -5l0 3 2 0 0 -3 -2 0zm0 -5l0 3 2 0 0 -3 -2 0zm0 -4l0 2 2 0 0 -2 -2 0zm0 -5l0 3 2 0 0 -3 -2 0zm0 -5l0 3 2 0 0 -3 -2 0zm0 -5l0 3 2 0 0 -3 -2 0zm0 -5l0 3 2 0 0 -3 -2 0 0 0zm0 -5l0 3 2 0 0 -3 -2 0zm0 -4l0 3 2 0 0 -3 -2 0zm0 -5l0 3 2 0 0 -3 -2 0zm0 -5l0 3 2 0 0 -3 -2 0zm0 -5l0 3 2 0 0 -3 -2 0zm0 -5l0 3 2 0 0 -3 -2 0zm0 -4l0 3 2 0 0 -3 -2 0zm0 -5l0 3 2 0 0 -3 -2 0zm0 -5l0 3 2 0 0 -3 -2 0zm0 -5l0 3 2 0 0 -3 -2 0zm0 -5l0 3 2 0 0 -3 -2 0 0 0zm0 -4l0 3 2 0 0 -3 -2 0 0 0zm0 -5l0 3 2 0 0 -3 -2 0 0 0zm0 -5l0 3 2 0 0 -3 -2 0 0 0zm-5 293l0 3 3 0 0 -3 -3 0zm0 -5l0 3 3 0 0 -3 -3 0zm0 -4l0 2 3 0 0 -2 -3 0zm0 -5l0 3 3 0 0 -3 -3 0zm0 -19l0 2 3 0 0 -2 -3 0zm0 -5l0 3 3 0 0 -3 -3 0zm0 -34l0 3 3 0 0 -3 -3 0zm0 -5l0 3 3 0 0 -3 -3 0zm0 -9l0 3 3 0 0 -3 -3 0zm0 -10l0 3 3 0 0 -3 -3 0zm0 -10l0 3 3 0 0 -3 -3 0zm0 -9l0 3 3 0 0 -3 -3 0zm0 -10l0 3 3 0 0 -3 -3 0zm0 -5l0 3 3 0 0 -3 -3 0zm0 -4l0 3 3 0 0 -3 -3 0zm0 -20l0 3 3 0 0 -3 -3 0zm0 -9l0 3 3 0 0 -3 -3 0zm0 -5l0 3 3 0 0 -3 -3 0zm0 -10l0 3 3 0 0 -3 -3 0zm0 -4l0 2 3 0 0 -2 -3 0zm0 -10l0 3 3 0 0 -3 -3 0zm0 -5l0 3 3 0 0 -3 -3 0zm0 -5l0 3 3 0 0 -3 -3 0zm0 -9l0 3 3 0 0 -3 -3 0zm0 -5l0 3 3 0 0 -3 -3 0zm0 -5l0 3 3 0 0 -3 -3 0zm0 -5l0 3 3 0 0 -3 -3 0 0 0zm0 -5l0 3 3 0 0 -3 -3 0zm0 -4l0 3 3 0 0 -3 -3 0zm0 -5l0 3 3 0 0 -3 -3 0zm0 -5l0 3 3 0 0 -3 -3 0zm0 -5l0 3 3 0 0 -3 -3 0zm0 -5l0 3 3 0 0 -3 -3 0zm0 -4l0 3 3 0 0 -3 -3 0zm0 -5l0 3 3 0 0 -3 -3 0zm0 -5l0 3 3 0 0 -3 -3 0zm0 -5l0 3 3 0 0 -3 -3 0zm0 -5l0 3 3 0 0 -3 -3 0 0 0zm0 -4l0 3 3 0 0 -3 -3 0 0 0zm0 -5l0 3 3 0 0 -3 -3 0 0 0zm-4 293l0 3 2 0 0 -3 -2 0zm0 -10l0 3 2 0 0 -3 -2 0zm0 -9l0 3 2 0 0 -3 -2 0zm0 -5l0 3 2 0 0 -3 -2 0zm0 -5l0 3 2 0 0 -3 -2 0zm0 -5l0 3 2 0 0 -3 -2 0zm0 -4l0 2 2 0 0 -2 -2 0zm0 -15l0 3 2 0 0 -3 -2 0zm0 -5l0 3 2 0 0 -3 -2 0zm0 -5l0 3 2 0 0 -3 -2 0zm0 -9l0 3 2 0 0 -3 -2 0zm0 -5l0 3 2 0 0 -3 -2 0zm0 -14l0 3 2 0 0 -3 -2 0zm0 -20l0 3 2 0 0 -3 -2 0zm0 -4l0 3 2 0 0 -3 -2 0zm0 -5l0 3 2 0 0 -3 -2 0zm0 -5l0 3 2 0 0 -3 -2 0zm0 -5l0 3 2 0 0 -3 -2 0zm0 -5l0 3 2 0 0 -3 -2 0zm0 -4l0 3 2 0 0 -3 -2 0zm0 -10l0 3 2 0 0 -3 -2 0zm0 -5l0 3 2 0 0 -3 -2 0zm0 -14l0 3 2 0 0 -3 -2 0zm0 -5l0 3 2 0 0 -3 -2 0zm0 -5l0 3 2 0 0 -3 -2 0zm0 -5l0 3 2 0 0 -3 -2 0zm0 -4l0 2 2 0 0 -2 -2 0zm0 -10l0 3 2 0 0 -3 -2 0zm0 -5l0 3 2 0 0 -3 -2 0zm0 -5l0 3 2 0 0 -3 -2 0zm0 -4l0 2 2 0 0 -2 -2 0zm0 -5l0 3 2 0 0 -3 -2 0zm0 -5l0 3 2 0 0 -3 -2 0zm0 -5l0 3 2 0 0 -3 -2 0zm0 -5l0 3 2 0 0 -3 -2 0 0 0zm0 -5l0 3 2 0 0 -3 -2 0zm0 -4l0 3 2 0 0 -3 -2 0zm0 -5l0 3 2 0 0 -3 -2 0zm0 -5l0 3 2 0 0 -3 -2 0zm0 -5l0 3 2 0 0 -3 -2 0zm0 -5l0 3 2 0 0 -3 -2 0zm0 -4l0 3 2 0 0 -3 -2 0zm0 -5l0 3 2 0 0 -3 -2 0zm0 -5l0 3 2 0 0 -3 -2 0zm0 -5l0 3 2 0 0 -3 -2 0zm0 -5l0 3 2 0 0 -3 -2 0 0 0zm0 -4l0 3 2 0 0 -3 -2 0 0 0zm0 -5l0 3 2 0 0 -3 -2 0 0 0zm0 -5l0 3 2 0 0 -3 -2 0 0 0zm-5 211l0 3 3 0 0 -3 -3 0zm0 -4l0 3 3 0 0 -3 -3 0zm0 -15l0 3 3 0 0 -3 -3 0zm0 -9l0 3 3 0 0 -3 -3 0zm0 -10l0 3 3 0 0 -3 -3 0zm0 -10l0 3 3 0 0 -3 -3 0zm0 -4l0 3 3 0 0 -3 -3 0zm0 -5l0 3 3 0 0 -3 -3 0zm0 -5l0 3 3 0 0 -3 -3 0zm0 -5l0 3 3 0 0 -3 -3 0zm0 -5l0 3 3 0 0 -3 -3 0zm0 -4l0 2 3 0 0 -2 -3 0zm0 -5l0 3 3 0 0 -3 -3 0zm0 -5l0 3 3 0 0 -3 -3 0zm0 -5l0 3 3 0 0 -3 -3 0zm0 -14l0 3 3 0 0 -3 -3 0zm0 -5l0 3 3 0 0 -3 -3 0zm0 -5l0 3 3 0 0 -3 -3 0zm0 -5l0 3 3 0 0 -3 -3 0zm0 -4l0 2 3 0 0 -2 -3 0zm0 -5l0 3 3 0 0 -3 -3 0zm0 -5l0 3 3 0 0 -3 -3 0zm0 -5l0 3 3 0 0 -3 -3 0zm0 -5l0 3 3 0 0 -3 -3 0 0 0zm0 -5l0 3 3 0 0 -3 -3 0zm0 -4l0 3 3 0 0 -3 -3 0zm0 -5l0 3 3 0 0 -3 -3 0zm0 -5l0 3 3 0 0 -3 -3 0zm0 -5l0 3 3 0 0 -3 -3 0zm0 -5l0 3 3 0 0 -3 -3 0zm0 -4l0 3 3 0 0 -3 -3 0zm0 -5l0 3 3 0 0 -3 -3 0zm0 -5l0 3 3 0 0 -3 -3 0zm0 -5l0 3 3 0 0 -3 -3 0zm0 -5l0 3 3 0 0 -3 -3 0 0 0zm0 -4l0 3 3 0 0 -3 -3 0 0 0zm0 -5l0 3 3 0 0 -3 -3 0 0 0zm0 -5l0 3 3 0 0 -3 -3 0 0 0zm-4 216l0 3 2 0 0 -3 -2 0zm0 -9l0 3 2 0 0 -3 -2 0zm0 -5l0 3 2 0 0 -3 -2 0zm0 -5l0 3 2 0 0 -3 -2 0zm0 -10l0 3 2 0 0 -3 -2 0zm0 -4l0 3 2 0 0 -3 -2 0zm0 -10l0 3 2 0 0 -3 -2 0zm0 -5l0 3 2 0 0 -3 -2 0zm0 -9l0 3 2 0 0 -3 -2 0zm0 -5l0 3 2 0 0 -3 -2 0zm0 -15l0 3 2 0 0 -3 -2 0zm0 -4l0 2 2 0 0 -2 -2 0zm0 -5l0 3 2 0 0 -3 -2 0zm0 -5l0 3 2 0 0 -3 -2 0zm0 -5l0 3 2 0 0 -3 -2 0zm0 -5l0 3 2 0 0 -3 -2 0zm0 -4l0 2 2 0 0 -2 -2 0zm0 -5l0 3 2 0 0 -3 -2 0zm0 -5l0 3 2 0 0 -3 -2 0zm0 -5l0 3 2 0 0 -3 -2 0zm0 -5l0 3 2 0 0 -3 -2 0zm0 -4l0 2 2 0 0 -2 -2 0zm0 -5l0 3 2 0 0 -3 -2 0zm0 -5l0 3 2 0 0 -3 -2 0zm0 -5l0 3 2 0 0 -3 -2 0zm0 -5l0 3 2 0 0 -3 -2 0 0 0zm0 -5l0 3 2 0 0 -3 -2 0zm0 -4l0 3 2 0 0 -3 -2 0zm0 -5l0 3 2 0 0 -3 -2 0zm0 -5l0 3 2 0 0 -3 -2 0zm0 -5l0 3 2 0 0 -3 -2 0zm0 -5l0 3 2 0 0 -3 -2 0zm0 -4l0 3 2 0 0 -3 -2 0zm0 -5l0 3 2 0 0 -3 -2 0zm0 -5l0 3 2 0 0 -3 -2 0zm0 -5l0 3 2 0 0 -3 -2 0zm0 -5l0 3 2 0 0 -3 -2 0 0 0zm0 -4l0 3 2 0 0 -3 -2 0 0 0zm0 -5l0 3 2 0 0 -3 -2 0 0 0zm0 -5l0 3 2 0 0 -3 -2 0 0 0zm-5 322l0 3 3 0 0 -3 -3 0zm0 -19l0 3 3 0 0 -3 -3 0zm0 -5l0 3 3 0 0 -3 -3 0zm0 -14l0 2 3 0 0 -2 -3 0zm0 -15l0 3 3 0 0 -3 -3 0zm0 -9l0 2 3 0 0 -2 -3 0zm0 -5l0 3 3 0 0 -3 -3 0zm0 -20l0 3 3 0 0 -3 -3 0zm0 -4l0 3 3 0 0 -3 -3 0zm0 -10l0 3 3 0 0 -3 -3 0zm0 -5l0 3 3 0 0 -3 -3 0zm0 -5l0 3 3 0 0 -3 -3 0zm0 -4l0 3 3 0 0 -3 -3 0zm0 -5l0 3 3 0 0 -3 -3 0zm0 -5l0 3 3 0 0 -3 -3 0zm0 -19l0 3 3 0 0 -3 -3 0zm0 -5l0 3 3 0 0 -3 -3 0zm0 -10l0 3 3 0 0 -3 -3 0zm0 -4l0 3 3 0 0 -3 -3 0zm0 -5l0 3 3 0 0 -3 -3 0zm0 -5l0 3 3 0 0 -3 -3 0zm0 -10l0 3 3 0 0 -3 -3 0zm0 -4l0 2 3 0 0 -2 -3 0zm0 -5l0 3 3 0 0 -3 -3 0zm0 -5l0 3 3 0 0 -3 -3 0zm0 -5l0 3 3 0 0 -3 -3 0zm0 -5l0 3 3 0 0 -3 -3 0zm0 -4l0 2 3 0 0 -2 -3 0zm0 -5l0 3 3 0 0 -3 -3 0zm0 -5l0 3 3 0 0 -3 -3 0zm0 -5l0 3 3 0 0 -3 -3 0zm0 -5l0 3 3 0 0 -3 -3 0zm0 -4l0 2 3 0 0 -2 -3 0zm0 -5l0 3 3 0 0 -3 -3 0zm0 -5l0 3 3 0 0 -3 -3 0zm0 -5l0 3 3 0 0 -3 -3 0zm0 -5l0 3 3 0 0 -3 -3 0 0 0zm0 -5l0 3 3 0 0 -3 -3 0zm0 -4l0 3 3 0 0 -3 -3 0zm0 -5l0 3 3 0 0 -3 -3 0zm0 -5l0 3 3 0 0 -3 -3 0zm0 -5l0 3 3 0 0 -3 -3 0zm0 -5l0 3 3 0 0 -3 -3 0zm0 -4l0 3 3 0 0 -3 -3 0zm0 -5l0 3 3 0 0 -3 -3 0zm0 -5l0 3 3 0 0 -3 -3 0zm0 -5l0 3 3 0 0 -3 -3 0zm0 -5l0 3 3 0 0 -3 -3 0 0 0zm0 -4l0 3 3 0 0 -3 -3 0 0 0zm0 -5l0 3 3 0 0 -3 -3 0 0 0zm0 -5l0 3 3 0 0 -3 -3 0 0 0zm-4 322l0 3 2 0 0 -3 -2 0zm0 -10l0 3 2 0 0 -3 -2 0zm0 -4l0 2 2 0 0 -2 -2 0zm0 -29l0 3 2 0 0 -3 -2 0zm0 -24l0 3 2 0 0 -3 -2 0zm0 -5l0 3 2 0 0 -3 -2 0zm0 -10l0 3 2 0 0 -3 -2 0zm0 -24l0 3 2 0 0 -3 -2 0zm0 -9l0 3 2 0 0 -3 -2 0zm0 -10l0 3 2 0 0 -3 -2 0zm0 -24l0 3 2 0 0 -3 -2 0zm0 -5l0 3 2 0 0 -3 -2 0zm0 -5l0 3 2 0 0 -3 -2 0zm0 -4l0 3 2 0 0 -3 -2 0zm0 -5l0 3 2 0 0 -3 -2 0zm0 -5l0 3 2 0 0 -3 -2 0zm0 -10l0 3 2 0 0 -3 -2 0zm0 -4l0 2 2 0 0 -2 -2 0zm0 -5l0 3 2 0 0 -3 -2 0zm0 -5l0 3 2 0 0 -3 -2 0zm0 -5l0 3 2 0 0 -3 -2 0zm0 -5l0 3 2 0 0 -3 -2 0zm0 -4l0 2 2 0 0 -2 -2 0zm0 -5l0 3 2 0 0 -3 -2 0zm0 -5l0 3 2 0 0 -3 -2 0zm0 -24l0 3 2 0 0 -3 -2 0zm0 -5l0 3 2 0 0 -3 -2 0zm0 -10l0 3 2 0 0 -3 -2 0zm0 -4l0 3 2 0 0 -3 -2 0zm0 -5l0 3 2 0 0 -3 -2 0zm0 -5l0 3 2 0 0 -3 -2 0zm0 -5l0 3 2 0 0 -3 -2 0zm0 -5l0 3 2 0 0 -3 -2 0zm0 -4l0 3 2 0 0 -3 -2 0zm0 -5l0 3 2 0 0 -3 -2 0zm0 -5l0 3 2 0 0 -3 -2 0zm0 -5l0 3 2 0 0 -3 -2 0zm0 -5l0 3 2 0 0 -3 -2 0 0 0zm0 -4l0 3 2 0 0 -3 -2 0 0 0zm0 -5l0 3 2 0 0 -3 -2 0 0 0zm0 -5l0 3 2 0 0 -3 -2 0 0 0zm-5 245l0 3 3 0 0 -3 -3 0zm0 -5l0 3 3 0 0 -3 -3 0zm0 -5l0 3 3 0 0 -3 -3 0zm0 -4l0 3 3 0 0 -3 -3 0zm0 -10l0 3 3 0 0 -3 -3 0zm0 -5l0 3 3 0 0 -3 -3 0zm0 -29l0 3 3 0 0 -3 -3 0zm0 -9l0 3 3 0 0 -3 -3 0zm0 -10l0 3 3 0 0 -3 -3 0zm0 -5l0 3 3 0 0 -3 -3 0zm0 -4l0 3 3 0 0 -3 -3 0zm0 -10l0 3 3 0 0 -3 -3 0zm0 -5l0 3 3 0 0 -3 -3 0zm0 -9l0 2 3 0 0 -2 -3 0zm0 -5l0 3 3 0 0 -3 -3 0zm0 -5l0 3 3 0 0 -3 -3 0zm0 -5l0 3 3 0 0 -3 -3 0zm0 -5l0 3 3 0 0 -3 -3 0zm0 -4l0 2 3 0 0 -2 -3 0zm0 -5l0 3 3 0 0 -3 -3 0zm0 -5l0 3 3 0 0 -3 -3 0zm0 -5l0 3 3 0 0 -3 -3 0zm0 -5l0 3 3 0 0 -3 -3 0zm0 -4l0 2 3 0 0 -2 -3 0zm0 -5l0 3 3 0 0 -3 -3 0zm0 -5l0 3 3 0 0 -3 -3 0zm0 -5l0 3 3 0 0 -3 -3 0zm0 -5l0 3 3 0 0 -3 -3 0 0 0zm0 -5l0 3 3 0 0 -3 -3 0zm0 -4l0 3 3 0 0 -3 -3 0zm0 -5l0 3 3 0 0 -3 -3 0zm0 -5l0 3 3 0 0 -3 -3 0zm0 -5l0 3 3 0 0 -3 -3 0zm0 -5l0 3 3 0 0 -3 -3 0zm0 -4l0 3 3 0 0 -3 -3 0zm0 -5l0 3 3 0 0 -3 -3 0zm0 -5l0 3 3 0 0 -3 -3 0zm0 -5l0 3 3 0 0 -3 -3 0zm0 -5l0 3 3 0 0 -3 -3 0 0 0zm0 -4l0 3 3 0 0 -3 -3 0 0 0zm0 -5l0 3 3 0 0 -3 -3 0 0 0zm0 -5l0 3 3 0 0 -3 -3 0 0 0zm-4 202l0 3 2 0 0 -3 -2 0zm0 -5l0 3 2 0 0 -3 -2 0zm0 -5l0 3 2 0 0 -3 -2 0zm0 -5l0 3 2 0 0 -3 -2 0zm0 -4l0 3 2 0 0 -3 -2 0zm0 -5l0 3 2 0 0 -3 -2 0zm0 -15l0 3 2 0 0 -3 -2 0zm0 -4l0 3 2 0 0 -3 -2 0zm0 -5l0 3 2 0 0 -3 -2 0zm0 -5l0 3 2 0 0 -3 -2 0zm0 -5l0 3 2 0 0 -3 -2 0zm0 -5l0 3 2 0 0 -3 -2 0zm0 -9l0 3 2 0 0 -3 -2 0zm0 -5l0 3 2 0 0 -3 -2 0zm0 -5l0 3 2 0 0 -3 -2 0zm0 -5l0 3 2 0 0 -3 -2 0zm0 -4l0 2 2 0 0 -2 -2 0zm0 -5l0 3 2 0 0 -3 -2 0zm0 -5l0 3 2 0 0 -3 -2 0zm0 -5l0 3 2 0 0 -3 -2 0zm0 -5l0 3 2 0 0 -3 -2 0zm0 -4l0 2 2 0 0 -2 -2 0zm0 -5l0 3 2 0 0 -3 -2 0zm0 -5l0 3 2 0 0 -3 -2 0zm0 -5l0 3 2 0 0 -3 -2 0zm0 -5l0 3 2 0 0 -3 -2 0 0 0zm0 -5l0 3 2 0 0 -3 -2 0zm0 -4l0 3 2 0 0 -3 -2 0zm0 -5l0 3 2 0 0 -3 -2 0zm0 -5l0 3 2 0 0 -3 -2 0zm0 -5l0 3 2 0 0 -3 -2 0zm0 -5l0 3 2 0 0 -3 -2 0zm0 -4l0 3 2 0 0 -3 -2 0zm0 -5l0 3 2 0 0 -3 -2 0zm0 -5l0 3 2 0 0 -3 -2 0zm0 -5l0 3 2 0 0 -3 -2 0zm0 -5l0 3 2 0 0 -3 -2 0 0 0zm0 -4l0 3 2 0 0 -3 -2 0 0 0zm0 -5l0 3 2 0 0 -3 -2 0 0 0zm0 -5l0 3 2 0 0 -3 -2 0 0 0zm-5 163l0 3 3 0 0 -3 -3 0zm0 -4l0 3 3 0 0 -3 -3 0zm0 -5l0 3 3 0 0 -3 -3 0zm0 -10l0 3 3 0 0 -3 -3 0zm0 -5l0 3 3 0 0 -3 -3 0zm0 -4l0 2 3 0 0 -2 -3 0zm0 -5l0 3 3 0 0 -3 -3 0zm0 -5l0 3 3 0 0 -3 -3 0zm0 -5l0 3 3 0 0 -3 -3 0zm0 -5l0 3 3 0 0 -3 -3 0zm0 -4l0 2 3 0 0 -2 -3 0zm0 -5l0 3 3 0 0 -3 -3 0zm0 -5l0 3 3 0 0 -3 -3 0zm0 -5l0 3 3 0 0 -3 -3 0zm0 -5l0 3 3 0 0 -3 -3 0zm0 -4l0 2 3 0 0 -2 -3 0zm0 -5l0 3 3 0 0 -3 -3 0zm0 -5l0 3 3 0 0 -3 -3 0zm0 -5l0 3 3 0 0 -3 -3 0zm0 -5l0 3 3 0 0 -3 -3 0 0 0zm0 -5l0 3 3 0 0 -3 -3 0zm0 -4l0 3 3 0 0 -3 -3 0zm0 -5l0 3 3 0 0 -3 -3 0zm0 -5l0 3 3 0 0 -3 -3 0zm0 -5l0 3 3 0 0 -3 -3 0zm0 -5l0 3 3 0 0 -3 -3 0zm0 -4l0 3 3 0 0 -3 -3 0zm0 -5l0 3 3 0 0 -3 -3 0zm0 -5l0 3 3 0 0 -3 -3 0zm0 -5l0 3 3 0 0 -3 -3 0zm0 -5l0 3 3 0 0 -3 -3 0 0 0zm0 -4l0 3 3 0 0 -3 -3 0 0 0zm0 -5l0 3 3 0 0 -3 -3 0 0 0zm0 -5l0 3 3 0 0 -3 -3 0 0 0zm-4 298l0 3 3 0 0 -3 -3 0zm0 -5l0 3 3 0 0 -3 -3 0zm0 -24l0 3 3 0 0 -3 -3 0zm0 -5l0 3 3 0 0 -3 -3 0zm0 -14l0 3 3 0 0 -3 -3 0zm0 -19l0 3 3 0 0 -3 -3 0zm0 -5l0 3 3 0 0 -3 -3 0zm0 -15l0 3 3 0 0 -3 -3 0zm0 -19l0 3 3 0 0 -3 -3 0zm0 -9l0 3 3 0 0 -3 -3 0zm0 -5l0 3 3 0 0 -3 -3 0zm0 -10l0 3 3 0 0 -3 -3 0zm0 -5l0 3 3 0 0 -3 -3 0zm0 -4l0 3 3 0 0 -3 -3 0zm0 -5l0 3 3 0 0 -3 -3 0zm0 -5l0 3 3 0 0 -3 -3 0zm0 -5l0 3 3 0 0 -3 -3 0zm0 -5l0 3 3 0 0 -3 -3 0zm0 -4l0 2 3 0 0 -2 -3 0zm0 -5l0 3 3 0 0 -3 -3 0zm0 -5l0 3 3 0 0 -3 -3 0zm0 -5l0 3 3 0 0 -3 -3 0zm0 -5l0 3 3 0 0 -3 -3 0zm0 -4l0 2 3 0 0 -2 -3 0zm0 -5l0 3 3 0 0 -3 -3 0zm0 -5l0 3 3 0 0 -3 -3 0zm0 -5l0 3 3 0 0 -3 -3 0zm0 -5l0 3 3 0 0 -3 -3 0zm0 -4l0 2 3 0 0 -2 -3 0zm0 -5l0 3 3 0 0 -3 -3 0zm0 -5l0 3 3 0 0 -3 -3 0zm0 -5l0 3 3 0 0 -3 -3 0zm0 -5l0 3 3 0 0 -3 -3 0 0 0zm0 -5l0 3 3 0 0 -3 -3 0zm0 -4l0 3 3 0 0 -3 -3 0zm0 -5l0 3 3 0 0 -3 -3 0zm0 -5l0 3 3 0 0 -3 -3 0zm0 -5l0 3 3 0 0 -3 -3 0zm0 -5l0 3 3 0 0 -3 -3 0zm0 -4l0 3 3 0 0 -3 -3 0zm0 -5l0 3 3 0 0 -3 -3 0zm0 -5l0 3 3 0 0 -3 -3 0zm0 -5l0 3 3 0 0 -3 -3 0zm0 -5l0 3 3 0 0 -3 -3 0 0 0zm0 -4l0 3 3 0 0 -3 -3 0 0 0zm0 -5l0 3 3 0 0 -3 -3 0 0 0zm0 -5l0 3 3 0 0 -3 -3 0 0 0zm-5 279l0 3 3 0 0 -3 -3 0zm0 -5l0 3 3 0 0 -3 -3 0zm0 -14l0 2 3 0 0 -2 -3 0zm0 -5l0 3 3 0 0 -3 -3 0zm0 -15l0 3 3 0 0 -3 -3 0zm0 -9l0 3 3 0 0 -3 -3 0zm0 -5l0 3 3 0 0 -3 -3 0zm0 -5l0 3 3 0 0 -3 -3 0zm0 -10l0 3 3 0 0 -3 -3 0zm0 -4l0 3 3 0 0 -3 -3 0zm0 -5l0 3 3 0 0 -3 -3 0zm0 -5l0 3 3 0 0 -3 -3 0zm0 -24l0 3 3 0 0 -3 -3 0zm0 -5l0 3 3 0 0 -3 -3 0zm0 -5l0 3 3 0 0 -3 -3 0zm0 -4l0 3 3 0 0 -3 -3 0zm0 -5l0 3 3 0 0 -3 -3 0zm0 -15l0 3 3 0 0 -3 -3 0zm0 -9l0 3 3 0 0 -3 -3 0zm0 -5l0 3 3 0 0 -3 -3 0zm0 -5l0 3 3 0 0 -3 -3 0zm0 -5l0 3 3 0 0 -3 -3 0zm0 -9l0 3 3 0 0 -3 -3 0zm0 -5l0 3 3 0 0 -3 -3 0zm0 -5l0 3 3 0 0 -3 -3 0zm0 -5l0 3 3 0 0 -3 -3 0zm0 -4l0 2 3 0 0 -2 -3 0zm0 -5l0 3 3 0 0 -3 -3 0zm0 -5l0 3 3 0 0 -3 -3 0zm0 -15l0 3 3 0 0 -3 -3 0zm0 -4l0 3 3 0 0 -3 -3 0zm0 -10l0 3 3 0 0 -3 -3 0zm0 -10l0 3 3 0 0 -3 -3 0zm0 -4l0 3 3 0 0 -3 -3 0zm0 -5l0 3 3 0 0 -3 -3 0zm0 -5l0 3 3 0 0 -3 -3 0zm0 -5l0 3 3 0 0 -3 -3 0zm0 -5l0 3 3 0 0 -3 -3 0 0 0zm0 -4l0 3 3 0 0 -3 -3 0 0 0zm0 -5l0 3 3 0 0 -3 -3 0 0 0zm0 -5l0 3 3 0 0 -3 -3 0 0 0zm-4 264l0 3 3 0 0 -3 -3 0zm0 -9l0 3 3 0 0 -3 -3 0zm0 -5l0 3 3 0 0 -3 -3 0zm0 -10l0 3 3 0 0 -3 -3 0zm0 -9l0 3 3 0 0 -3 -3 0zm0 -5l0 3 3 0 0 -3 -3 0zm0 -5l0 3 3 0 0 -3 -3 0zm0 -5l0 3 3 0 0 -3 -3 0zm0 -19l0 3 3 0 0 -3 -3 0zm0 -14l0 3 3 0 0 -3 -3 0zm0 -10l0 3 3 0 0 -3 -3 0zm0 -5l0 3 3 0 0 -3 -3 0zm0 -5l0 3 3 0 0 -3 -3 0zm0 -4l0 3 3 0 0 -3 -3 0zm0 -5l0 3 3 0 0 -3 -3 0zm0 -5l0 3 3 0 0 -3 -3 0zm0 -19l0 3 3 0 0 -3 -3 0zm0 -5l0 3 3 0 0 -3 -3 0zm0 -5l0 3 3 0 0 -3 -3 0zm0 -5l0 3 3 0 0 -3 -3 0zm0 -4l0 2 3 0 0 -2 -3 0zm0 -5l0 3 3 0 0 -3 -3 0zm0 -5l0 3 3 0 0 -3 -3 0zm0 -5l0 3 3 0 0 -3 -3 0zm0 -5l0 3 3 0 0 -3 -3 0 0 0zm0 -4l0 2 3 0 0 -2 -3 0zm0 -5l0 3 3 0 0 -3 -3 0zm0 -5l0 3 3 0 0 -3 -3 0zm0 -5l0 3 3 0 0 -3 -3 0zm0 -5l0 3 3 0 0 -3 -3 0 0 0zm0 -5l0 3 3 0 0 -3 -3 0zm0 -4l0 3 3 0 0 -3 -3 0zm0 -5l0 3 3 0 0 -3 -3 0zm0 -5l0 3 3 0 0 -3 -3 0zm0 -5l0 3 3 0 0 -3 -3 0zm0 -5l0 3 3 0 0 -3 -3 0zm0 -4l0 3 3 0 0 -3 -3 0zm0 -5l0 3 3 0 0 -3 -3 0zm0 -5l0 3 3 0 0 -3 -3 0zm0 -5l0 3 3 0 0 -3 -3 0zm0 -5l0 3 3 0 0 -3 -3 0 0 0zm0 -4l0 3 3 0 0 -3 -3 0 0 0zm0 -5l0 3 3 0 0 -3 -3 0 0 0zm0 -5l0 3 3 0 0 -3 -3 0 0 0zm-5 226l0 3 3 0 0 -3 -3 0zm0 -5l0 3 3 0 0 -3 -3 0zm0 -5l0 3 3 0 0 -3 -3 0zm0 -5l0 3 3 0 0 -3 -3 0zm0 -4l0 3 3 0 0 -3 -3 0zm0 -15l0 3 3 0 0 -3 -3 0zm0 -9l0 3 3 0 0 -3 -3 0zm0 -10l0 3 3 0 0 -3 -3 0zm0 -5l0 3 3 0 0 -3 -3 0zm0 -5l0 3 3 0 0 -3 -3 0zm0 -4l0 3 3 0 0 -3 -3 0zm0 -5l0 3 3 0 0 -3 -3 0zm0 -15l0 3 3 0 0 -3 -3 0zm0 -4l0 2 3 0 0 -2 -3 0zm0 -15l0 3 3 0 0 -3 -3 0zm0 -5l0 3 3 0 0 -3 -3 0zm0 -4l0 2 3 0 0 -2 -3 0zm0 -5l0 3 3 0 0 -3 -3 0zm0 -5l0 3 3 0 0 -3 -3 0zm0 -5l0 3 3 0 0 -3 -3 0zm0 -5l0 3 3 0 0 -3 -3 0 0 0zm0 -4l0 2 3 0 0 -2 -3 0zm0 -5l0 3 3 0 0 -3 -3 0zm0 -5l0 3 3 0 0 -3 -3 0zm0 -5l0 3 3 0 0 -3 -3 0zm0 -5l0 3 3 0 0 -3 -3 0 0 0zm0 -5l0 3 3 0 0 -3 -3 0zm0 -4l0 3 3 0 0 -3 -3 0zm0 -5l0 3 3 0 0 -3 -3 0zm0 -5l0 3 3 0 0 -3 -3 0zm0 -5l0 3 3 0 0 -3 -3 0zm0 -5l0 3 3 0 0 -3 -3 0zm0 -4l0 3 3 0 0 -3 -3 0zm0 -5l0 3 3 0 0 -3 -3 0zm0 -5l0 3 3 0 0 -3 -3 0zm0 -5l0 3 3 0 0 -3 -3 0zm0 -5l0 3 3 0 0 -3 -3 0 0 0zm0 -4l0 3 3 0 0 -3 -3 0 0 0zm0 -5l0 3 3 0 0 -3 -3 0 0 0zm0 -5l0 3 3 0 0 -3 -3 0 0 0zm-4 197l0 3 3 0 0 -3 -3 0zm0 -5l0 3 3 0 0 -3 -3 0zm0 -5l0 3 3 0 0 -3 -3 0zm0 -4l0 3 3 0 0 -3 -3 0zm0 -5l0 3 3 0 0 -3 -3 0zm0 -10l0 3 3 0 0 -3 -3 0zm0 -5l0 3 3 0 0 -3 -3 0zm0 -9l0 3 3 0 0 -3 -3 0zm0 -5l0 3 3 0 0 -3 -3 0zm0 -10l0 3 3 0 0 -3 -3 0zm0 -4l0 2 3 0 0 -2 -3 0zm0 -5l0 3 3 0 0 -3 -3 0zm0 -5l0 3 3 0 0 -3 -3 0zm0 -5l0 3 3 0 0 -3 -3 0zm0 -5l0 3 3 0 0 -3 -3 0zm0 -4l0 2 3 0 0 -2 -3 0zm0 -5l0 3 3 0 0 -3 -3 0zm0 -5l0 3 3 0 0 -3 -3 0zm0 -5l0 3 3 0 0 -3 -3 0zm0 -5l0 3 3 0 0 -3 -3 0 0 0zm0 -4l0 2 3 0 0 -2 -3 0zm0 -5l0 3 3 0 0 -3 -3 0zm0 -5l0 3 3 0 0 -3 -3 0zm0 -5l0 3 3 0 0 -3 -3 0zm0 -5l0 3 3 0 0 -3 -3 0 0 0zm0 -5l0 3 3 0 0 -3 -3 0zm0 -4l0 3 3 0 0 -3 -3 0zm0 -5l0 3 3 0 0 -3 -3 0zm0 -5l0 3 3 0 0 -3 -3 0zm0 -5l0 3 3 0 0 -3 -3 0zm0 -5l0 3 3 0 0 -3 -3 0zm0 -24l0 3 3 0 0 -3 -3 0 0 0zm0 -14l0 3 3 0 0 -3 -3 0 0 0zm-5 264l0 3 3 0 0 -3 -3 0zm0 -9l0 3 3 0 0 -3 -3 0zm0 -5l0 3 3 0 0 -3 -3 0zm0 -5l0 3 3 0 0 -3 -3 0zm0 -5l0 3 3 0 0 -3 -3 0zm0 -5l0 3 3 0 0 -3 -3 0zm0 -4l0 3 3 0 0 -3 -3 0zm0 -5l0 3 3 0 0 -3 -3 0zm0 -5l0 3 3 0 0 -3 -3 0zm0 -5l0 3 3 0 0 -3 -3 0zm0 -5l0 3 3 0 0 -3 -3 0zm0 -19l0 3 3 0 0 -3 -3 0zm0 -9l0 3 3 0 0 -3 -3 0zm0 -10l0 3 3 0 0 -3 -3 0zm0 -5l0 3 3 0 0 -3 -3 0zm0 -5l0 3 3 0 0 -3 -3 0zm0 -4l0 3 3 0 0 -3 -3 0zm0 -5l0 3 3 0 0 -3 -3 0zm0 -10l0 3 3 0 0 -3 -3 0zm0 -5l0 3 3 0 0 -3 -3 0zm0 -4l0 2 3 0 0 -2 -3 0zm0 -15l0 3 3 0 0 -3 -3 0zm0 -9l0 2 3 0 0 -2 -3 0zm0 -5l0 3 3 0 0 -3 -3 0zm0 -5l0 3 3 0 0 -3 -3 0zm0 -5l0 3 3 0 0 -3 -3 0zm0 -5l0 3 3 0 0 -3 -3 0 0 0zm0 -4l0 2 3 0 0 -2 -3 0zm0 -5l0 3 3 0 0 -3 -3 0zm0 -5l0 3 3 0 0 -3 -3 0zm0 -5l0 3 3 0 0 -3 -3 0zm0 -5l0 3 3 0 0 -3 -3 0 0 0zm0 -5l0 3 3 0 0 -3 -3 0zm0 -4l0 3 3 0 0 -3 -3 0zm0 -5l0 3 3 0 0 -3 -3 0zm0 -5l0 3 3 0 0 -3 -3 0zm0 -5l0 3 3 0 0 -3 -3 0zm0 -5l0 3 3 0 0 -3 -3 0zm0 -4l0 3 3 0 0 -3 -3 0zm0 -5l0 3 3 0 0 -3 -3 0zm0 -5l0 3 3 0 0 -3 -3 0zm0 -5l0 3 3 0 0 -3 -3 0zm0 -5l0 3 3 0 0 -3 -3 0 0 0zm0 -4l0 3 3 0 0 -3 -3 0 0 0zm0 -5l0 3 3 0 0 -3 -3 0 0 0zm0 -5l0 3 3 0 0 -3 -3 0 0 0zm-4 317l0 3 3 0 0 -3 -3 0zm0 -9l0 2 3 0 0 -2 -3 0zm0 -5l0 3 3 0 0 -3 -3 0zm0 -10l0 3 3 0 0 -3 -3 0zm0 -19l0 3 3 0 0 -3 -3 0zm0 -24l0 3 3 0 0 -3 -3 0zm0 -19l0 3 3 0 0 -3 -3 0zm0 -5l0 3 3 0 0 -3 -3 0zm0 -5l0 3 3 0 0 -3 -3 0zm0 -5l0 3 3 0 0 -3 -3 0zm0 -5l0 3 3 0 0 -3 -3 0zm0 -4l0 3 3 0 0 -3 -3 0zm0 -5l0 3 3 0 0 -3 -3 0zm0 -5l0 3 3 0 0 -3 -3 0zm0 -5l0 3 3 0 0 -3 -3 0zm0 -5l0 3 3 0 0 -3 -3 0zm0 -4l0 3 3 0 0 -3 -3 0zm0 -5l0 3 3 0 0 -3 -3 0zm0 -5l0 3 3 0 0 -3 -3 0zm0 -5l0 3 3 0 0 -3 -3 0zm0 -5l0 3 3 0 0 -3 -3 0zm0 -9l0 3 3 0 0 -3 -3 0zm0 -5l0 3 3 0 0 -3 -3 0zm0 -5l0 3 3 0 0 -3 -3 0zm0 -5l0 3 3 0 0 -3 -3 0zm0 -4l0 2 3 0 0 -2 -3 0zm0 -10l0 3 3 0 0 -3 -3 0zm0 -10l0 3 3 0 0 -3 -3 0zm0 -4l0 2 3 0 0 -2 -3 0zm0 -5l0 3 3 0 0 -3 -3 0zm0 -5l0 3 3 0 0 -3 -3 0zm0 -5l0 3 3 0 0 -3 -3 0zm0 -5l0 3 3 0 0 -3 -3 0 0 0zm0 -4l0 2 3 0 0 -2 -3 0zm0 -5l0 3 3 0 0 -3 -3 0zm0 -5l0 3 3 0 0 -3 -3 0zm0 -5l0 3 3 0 0 -3 -3 0zm0 -5l0 3 3 0 0 -3 -3 0 0 0zm0 -5l0 3 3 0 0 -3 -3 0zm0 -4l0 3 3 0 0 -3 -3 0zm0 -5l0 3 3 0 0 -3 -3 0zm0 -5l0 3 3 0 0 -3 -3 0zm0 -5l0 3 3 0 0 -3 -3 0zm0 -5l0 3 3 0 0 -3 -3 0zm0 -4l0 3 3 0 0 -3 -3 0zm0 -5l0 3 3 0 0 -3 -3 0zm0 -5l0 3 3 0 0 -3 -3 0zm0 -5l0 3 3 0 0 -3 -3 0zm0 -5l0 3 3 0 0 -3 -3 0 0 0zm0 -4l0 3 3 0 0 -3 -3 0 0 0zm0 -5l0 3 3 0 0 -3 -3 0 0 0zm0 -5l0 3 3 0 0 -3 -3 0 0 0zm-5 255l0 3 3 0 0 -3 -3 0zm0 -10l0 3 3 0 0 -3 -3 0 0 0zm0 -5l0 3 3 0 0 -3 -3 0 0 0zm0 -5l0 3 3 0 0 -3 -3 0 0 0zm0 -4l0 3 3 0 0 -3 -3 0 0 0zm0 -5l0 3 3 0 0 -3 -3 0 0 0zm0 -10l0 3 3 0 0 -3 -3 0 0 0zm0 -5l0 3 3 0 0 -3 -3 0 0 0zm0 -4l0 3 3 0 0 -3 -3 0 0 0zm0 -5l0 3 3 0 0 -3 -3 0 0 0zm0 -5l0 3 3 0 0 -3 -3 0 0 0zm0 -5l0 3 3 0 0 -3 -3 0 0 0zm0 -5l0 3 3 0 0 -3 -3 0 0 0zm0 -4l0 3 3 0 0 -3 -3 0 0 0zm0 -5l0 3 3 0 0 -3 -3 0 0 0zm0 -10l0 3 3 0 0 -3 -3 0 0 0zm0 -5l0 3 3 0 0 -3 -3 0 0 0zm0 -4l0 3 3 0 0 -3 -3 0 0 0zm0 -5l0 3 3 0 0 -3 -3 0 0 0zm0 -5l0 3 3 0 0 -3 -3 0 0 0zm0 -10l0 3 3 0 0 -3 -3 0 0 0zm0 -4l0 2 3 0 0 -2 -3 0 0 0zm0 -5l0 3 3 0 0 -3 -3 0 0 0zm0 -10l0 3 3 0 0 -3 -3 0 0 0zm0 -5l0 3 3 0 0 -3 -3 0 0 0zm0 -9l0 3 3 0 0 -3 -3 0 0 0zm0 -5l0 3 3 0 0 -3 -3 0 0 0zm0 -5l0 3 3 0 0 -3 -3 0 0 0zm0 -9l0 2 3 0 0 -2 -3 0 0 0zm0 -5l0 3 3 0 0 -3 -3 0 0 0zm0 -5l0 3 3 0 0 -3 -3 0 0 0zm0 -5l0 3 3 0 0 -3 -3 0 0 0zm0 -5l0 3 3 0 0 -3 -3 0 0 0zm0 -5l0 3 3 0 0 -3 -3 0 0 0zm0 -4l0 3 3 0 0 -3 -3 0 0 0zm0 -5l0 3 3 0 0 -3 -3 0 0 0zm0 -5l0 3 3 0 0 -3 -3 0 0 0zm0 -5l0 3 3 0 0 -3 -3 0 0 0zm0 -5l0 3 3 0 0 -3 -3 0 0 0zm0 -4l0 3 3 0 0 -3 -3 0 0 0zm0 -5l0 3 3 0 0 -3 -3 0 0 0zm0 -5l0 3 3 0 0 -3 -3 0 0 0zm0 -5l0 3 3 0 0 -3 -3 0 0 0zm0 -5l0 3 3 0 0 -3 -3 0 0 0zm0 -4l0 3 3 0 0 -3 -3 0 0 0zm0 -5l0 3 3 0 0 -3 -3 0 0 0zm0 -5l0 3 3 0 0 -3 -3 0 0 0zm-4 250l0 3 3 0 0 -3 -3 0 0 0zm0 -19l0 3 3 0 0 -3 -3 0 0 0zm0 -10l0 3 3 0 0 -3 -3 0 0 0zm0 -5l0 3 3 0 0 -3 -3 0 0 0zm0 -5l0 3 3 0 0 -3 -3 0 0 0zm0 -4l0 3 3 0 0 -3 -3 0 0 0zm0 -5l0 3 3 0 0 -3 -3 0 0 0zm0 -5l0 3 3 0 0 -3 -3 0 0 0zm0 -5l0 3 3 0 0 -3 -3 0 0 0zm0 -5l0 3 3 0 0 -3 -3 0 0 0zm0 -4l0 3 3 0 0 -3 -3 0 0 0zm0 -5l0 3 3 0 0 -3 -3 0 0 0zm0 -5l0 3 3 0 0 -3 -3 0 0 0zm0 -19l0 3 3 0 0 -3 -3 0 0 0zm0 -5l0 3 3 0 0 -3 -3 0 0 0zm0 -5l0 3 3 0 0 -3 -3 0 0 0zm0 -5l0 3 3 0 0 -3 -3 0 0 0zm0 -4l0 2 3 0 0 -2 -3 0 0 0zm0 -5l0 3 3 0 0 -3 -3 0 0 0zm0 -5l0 3 3 0 0 -3 -3 0 0 0zm0 -5l0 3 3 0 0 -3 -3 0 0 0zm0 -5l0 3 3 0 0 -3 -3 0 0 0zm0 -4l0 2 3 0 0 -2 -3 0 0 0zm0 -5l0 3 3 0 0 -3 -3 0 0 0zm0 -5l0 3 3 0 0 -3 -3 0 0 0zm0 -5l0 3 3 0 0 -3 -3 0 0 0zm0 -9l0 2 3 0 0 -2 -3 0 0 0zm0 -10l0 3 3 0 0 -3 -3 0 0 0zm0 -5l0 3 3 0 0 -3 -3 0 0 0zm0 -5l0 3 3 0 0 -3 -3 0 0 0zm0 -5l0 3 3 0 0 -3 -3 0 0 0zm0 -4l0 3 3 0 0 -3 -3 0 0 0zm0 -5l0 3 3 0 0 -3 -3 0 0 0zm0 -5l0 3 3 0 0 -3 -3 0 0 0zm0 -5l0 3 3 0 0 -3 -3 0 0 0zm0 -5l0 3 3 0 0 -3 -3 0 0 0zm0 -4l0 3 3 0 0 -3 -3 0 0 0zm0 -5l0 3 3 0 0 -3 -3 0 0 0zm0 -5l0 3 3 0 0 -3 -3 0 0 0zm0 -5l0 3 3 0 0 -3 -3 0 0 0zm0 -5l0 3 3 0 0 -3 -3 0 0 0zm0 -9l0 3 3 0 0 -3 -3 0 0 0zm0 -5l0 3 3 0 0 -3 -3 0 0 0zm-5 288l0 3 3 0 0 -3 -3 0zm0 -4l0 2 3 0 0 -2 -3 0zm0 -5l0 3 3 0 0 -3 -3 0zm0 -10l0 3 3 0 0 -3 -3 0zm0 -24l0 3 3 0 0 -3 -3 0zm0 -5l0 3 3 0 0 -3 -3 0zm0 -5l0 3 3 0 0 -3 -3 0zm0 -4l0 3 3 0 0 -3 -3 0zm0 -5l0 3 3 0 0 -3 -3 0zm0 -5l0 3 3 0 0 -3 -3 0zm0 -5l0 3 3 0 0 -3 -3 0zm0 -5l0 3 3 0 0 -3 -3 0zm0 -4l0 3 3 0 0 -3 -3 0zm0 -5l0 3 3 0 0 -3 -3 0zm0 -5l0 3 3 0 0 -3 -3 0zm0 -5l0 3 3 0 0 -3 -3 0zm0 -5l0 3 3 0 0 -3 -3 0zm0 -4l0 3 3 0 0 -3 -3 0zm0 -5l0 3 3 0 0 -3 -3 0zm0 -5l0 3 3 0 0 -3 -3 0zm0 -5l0 3 3 0 0 -3 -3 0zm0 -5l0 3 3 0 0 -3 -3 0zm0 -4l0 3 3 0 0 -3 -3 0zm0 -5l0 3 3 0 0 -3 -3 0zm0 -5l0 3 3 0 0 -3 -3 0zm0 -5l0 3 3 0 0 -3 -3 0zm0 -9l0 2 3 0 0 -2 -3 0zm0 -5l0 3 3 0 0 -3 -3 0zm0 -15l0 3 3 0 0 -3 -3 0zm0 -4l0 2 3 0 0 -2 -3 0zm0 -5l0 3 3 0 0 -3 -3 0zm0 -5l0 3 3 0 0 -3 -3 0zm0 -5l0 3 3 0 0 -3 -3 0zm0 -5l0 3 3 0 0 -3 -3 0 0 0zm0 -4l0 2 3 0 0 -2 -3 0zm0 -5l0 3 3 0 0 -3 -3 0zm0 -5l0 3 3 0 0 -3 -3 0zm0 -5l0 3 3 0 0 -3 -3 0zm0 -5l0 3 3 0 0 -3 -3 0 0 0zm0 -5l0 3 3 0 0 -3 -3 0zm0 -4l0 3 3 0 0 -3 -3 0zm0 -5l0 3 3 0 0 -3 -3 0zm0 -5l0 3 3 0 0 -3 -3 0zm0 -5l0 3 3 0 0 -3 -3 0zm0 -5l0 3 3 0 0 -3 -3 0zm0 -4l0 3 3 0 0 -3 -3 0zm0 -5l0 3 3 0 0 -3 -3 0zm0 -5l0 3 3 0 0 -3 -3 0zm0 -5l0 3 3 0 0 -3 -3 0zm0 -5l0 3 3 0 0 -3 -3 0 0 0zm0 -4l0 3 3 0 0 -3 -3 0 0 0zm0 -5l0 3 3 0 0 -3 -3 0 0 0zm0 -5l0 3 3 0 0 -3 -3 0 0 0zm-4 221l0 3 3 0 0 -3 -3 0zm0 -5l0 3 3 0 0 -3 -3 0zm0 -9l0 3 3 0 0 -3 -3 0zm0 -5l0 3 3 0 0 -3 -3 0zm0 -10l0 3 3 0 0 -3 -3 0zm0 -5l0 3 3 0 0 -3 -3 0zm0 -4l0 3 3 0 0 -3 -3 0zm0 -10l0 3 3 0 0 -3 -3 0zm0 -5l0 3 3 0 0 -3 -3 0zm0 -5l0 3 3 0 0 -3 -3 0zm0 -4l0 3 3 0 0 -3 -3 0zm0 -5l0 3 3 0 0 -3 -3 0zm0 -10l0 3 3 0 0 -3 -3 0zm0 -5l0 3 3 0 0 -3 -3 0zm0 -4l0 2 3 0 0 -2 -3 0zm0 -5l0 3 3 0 0 -3 -3 0zm0 -5l0 3 3 0 0 -3 -3 0zm0 -5l0 3 3 0 0 -3 -3 0zm0 -5l0 3 3 0 0 -3 -3 0zm0 -4l0 2 3 0 0 -2 -3 0zm0 -5l0 3 3 0 0 -3 -3 0zm0 -5l0 3 3 0 0 -3 -3 0zm0 -5l0 3 3 0 0 -3 -3 0zm0 -5l0 3 3 0 0 -3 -3 0 0 0zm0 -4l0 2 3 0 0 -2 -3 0zm0 -5l0 3 3 0 0 -3 -3 0zm0 -5l0 3 3 0 0 -3 -3 0zm0 -5l0 3 3 0 0 -3 -3 0zm0 -5l0 3 3 0 0 -3 -3 0 0 0zm0 -5l0 3 3 0 0 -3 -3 0zm0 -4l0 3 3 0 0 -3 -3 0zm0 -5l0 3 3 0 0 -3 -3 0zm0 -5l0 3 3 0 0 -3 -3 0zm0 -10l0 3 3 0 0 -3 -3 0zm0 -4l0 3 3 0 0 -3 -3 0zm0 -5l0 3 3 0 0 -3 -3 0zm0 -5l0 3 3 0 0 -3 -3 0zm0 -5l0 3 3 0 0 -3 -3 0zm0 -5l0 3 3 0 0 -3 -3 0 0 0zm0 -4l0 3 3 0 0 -3 -3 0 0 0zm0 -5l0 3 3 0 0 -3 -3 0 0 0zm0 -5l0 3 3 0 0 -3 -3 0 0 0zm-5 327l0 3 3 0 0 -3 -3 0zm0 -5l0 3 3 0 0 -3 -3 0zm0 -19l0 3 3 0 0 -3 -3 0zm0 -15l0 3 3 0 0 -3 -3 0zm0 -4l0 2 3 0 0 -2 -3 0zm0 -5l0 3 3 0 0 -3 -3 0zm0 -10l0 3 3 0 0 -3 -3 0zm0 -5l0 3 3 0 0 -3 -3 0zm0 -4l0 2 3 0 0 -2 -3 0zm0 -10l0 3 3 0 0 -3 -3 0zm0 -5l0 3 3 0 0 -3 -3 0zm0 -5l0 3 3 0 0 -3 -3 0zm0 -5l0 3 3 0 0 -3 -3 0zm0 -4l0 3 3 0 0 -3 -3 0zm0 -5l0 3 3 0 0 -3 -3 0zm0 -5l0 3 3 0 0 -3 -3 0zm0 -5l0 3 3 0 0 -3 -3 0zm0 -5l0 3 3 0 0 -3 -3 0zm0 -4l0 3 3 0 0 -3 -3 0zm0 -5l0 3 3 0 0 -3 -3 0zm0 -5l0 3 3 0 0 -3 -3 0zm0 -5l0 3 3 0 0 -3 -3 0zm0 -9l0 3 3 0 0 -3 -3 0zm0 -5l0 3 3 0 0 -3 -3 0zm0 -5l0 3 3 0 0 -3 -3 0zm0 -10l0 3 3 0 0 -3 -3 0zm0 -4l0 3 3 0 0 -3 -3 0zm0 -5l0 3 3 0 0 -3 -3 0zm0 -5l0 3 3 0 0 -3 -3 0zm0 -5l0 3 3 0 0 -3 -3 0zm0 -5l0 3 3 0 0 -3 -3 0zm0 -4l0 2 3 0 0 -2 -3 0zm0 -5l0 3 3 0 0 -3 -3 0zm0 -5l0 3 3 0 0 -3 -3 0zm0 -5l0 3 3 0 0 -3 -3 0zm0 -5l0 3 3 0 0 -3 -3 0zm0 -4l0 2 3 0 0 -2 -3 0zm0 -5l0 3 3 0 0 -3 -3 0zm0 -5l0 3 3 0 0 -3 -3 0zm0 -5l0 3 3 0 0 -3 -3 0zm0 -9l0 2 3 0 0 -2 -3 0zm0 -5l0 3 3 0 0 -3 -3 0zm0 -5l0 3 3 0 0 -3 -3 0zm0 -5l0 3 3 0 0 -3 -3 0zm0 -5l0 3 3 0 0 -3 -3 0 0 0zm0 -5l0 3 3 0 0 -3 -3 0zm0 -4l0 3 3 0 0 -3 -3 0zm0 -5l0 3 3 0 0 -3 -3 0zm0 -5l0 3 3 0 0 -3 -3 0zm0 -5l0 3 3 0 0 -3 -3 0zm0 -5l0 3 3 0 0 -3 -3 0zm0 -4l0 3 3 0 0 -3 -3 0zm0 -5l0 3 3 0 0 -3 -3 0zm0 -5l0 3 3 0 0 -3 -3 0zm0 -5l0 3 3 0 0 -3 -3 0zm0 -5l0 3 3 0 0 -3 -3 0 0 0zm0 -4l0 3 3 0 0 -3 -3 0 0 0zm0 -5l0 3 3 0 0 -3 -3 0 0 0zm0 -5l0 3 3 0 0 -3 -3 0 0 0zm-4 298l0 3 3 0 0 -3 -3 0zm0 -5l0 3 3 0 0 -3 -3 0zm0 -9l0 2 3 0 0 -2 -3 0zm0 -10l0 3 3 0 0 -3 -3 0zm0 -39l0 3 3 0 0 -3 -3 0zm0 -4l0 3 3 0 0 -3 -3 0zm0 -10l0 3 3 0 0 -3 -3 0zm0 -10l0 3 3 0 0 -3 -3 0zm0 -4l0 3 3 0 0 -3 -3 0zm0 -29l0 3 3 0 0 -3 -3 0zm0 -5l0 3 3 0 0 -3 -3 0zm0 -5l0 3 3 0 0 -3 -3 0zm0 -5l0 3 3 0 0 -3 -3 0zm0 -19l0 3 3 0 0 -3 -3 0zm0 -5l0 3 3 0 0 -3 -3 0zm0 -4l0 2 3 0 0 -2 -3 0zm0 -10l0 3 3 0 0 -3 -3 0zm0 -5l0 3 3 0 0 -3 -3 0zm0 -5l0 3 3 0 0 -3 -3 0zm0 -9l0 3 3 0 0 -3 -3 0zm0 -5l0 3 3 0 0 -3 -3 0zm0 -5l0 3 3 0 0 -3 -3 0zm0 -5l0 3 3 0 0 -3 -3 0 0 0zm0 -4l0 2 3 0 0 -2 -3 0zm0 -5l0 3 3 0 0 -3 -3 0zm0 -5l0 3 3 0 0 -3 -3 0zm0 -5l0 3 3 0 0 -3 -3 0zm0 -5l0 3 3 0 0 -3 -3 0 0 0zm0 -5l0 3 3 0 0 -3 -3 0zm0 -4l0 3 3 0 0 -3 -3 0zm0 -5l0 3 3 0 0 -3 -3 0zm0 -5l0 3 3 0 0 -3 -3 0zm0 -5l0 3 3 0 0 -3 -3 0zm0 -5l0 3 3 0 0 -3 -3 0zm0 -4l0 3 3 0 0 -3 -3 0zm0 -5l0 3 3 0 0 -3 -3 0zm0 -5l0 3 3 0 0 -3 -3 0zm0 -5l0 3 3 0 0 -3 -3 0zm0 -5l0 3 3 0 0 -3 -3 0 0 0zm0 -4l0 3 3 0 0 -3 -3 0 0 0zm0 -5l0 3 3 0 0 -3 -3 0 0 0zm0 -5l0 3 3 0 0 -3 -3 0 0 0zm-5 163l0 3 3 0 0 -3 -3 0zm0 -4l0 3 3 0 0 -3 -3 0zm0 -5l0 3 3 0 0 -3 -3 0zm0 -5l0 3 3 0 0 -3 -3 0zm0 -5l0 3 3 0 0 -3 -3 0zm0 -5l0 3 3 0 0 -3 -3 0zm0 -19l0 3 3 0 0 -3 -3 0zm0 -5l0 3 3 0 0 -3 -3 0zm0 -4l0 2 3 0 0 -2 -3 0zm0 -5l0 3 3 0 0 -3 -3 0zm0 -10l0 3 3 0 0 -3 -3 0zm0 -5l0 3 3 0 0 -3 -3 0 0 0zm0 -4l0 2 3 0 0 -2 -3 0zm0 -5l0 3 3 0 0 -3 -3 0zm0 -5l0 3 3 0 0 -3 -3 0zm0 -5l0 3 3 0 0 -3 -3 0zm0 -5l0 3 3 0 0 -3 -3 0 0 0zm0 -5l0 3 3 0 0 -3 -3 0zm0 -4l0 3 3 0 0 -3 -3 0zm0 -5l0 3 3 0 0 -3 -3 0zm0 -5l0 3 3 0 0 -3 -3 0zm0 -5l0 3 3 0 0 -3 -3 0zm0 -5l0 3 3 0 0 -3 -3 0zm0 -4l0 3 3 0 0 -3 -3 0zm0 -5l0 3 3 0 0 -3 -3 0zm0 -5l0 3 3 0 0 -3 -3 0zm0 -5l0 3 3 0 0 -3 -3 0zm0 -5l0 3 3 0 0 -3 -3 0 0 0zm0 -4l0 3 3 0 0 -3 -3 0 0 0zm0 -5l0 3 3 0 0 -3 -3 0 0 0zm0 -5l0 3 3 0 0 -3 -3 0 0 0zm-4 168l0 3 3 0 0 -3 -3 0zm0 -5l0 3 3 0 0 -3 -3 0zm0 -9l0 3 3 0 0 -3 -3 0zm0 -5l0 3 3 0 0 -3 -3 0zm0 -10l0 3 3 0 0 -3 -3 0zm0 -4l0 2 3 0 0 -2 -3 0zm0 -5l0 3 3 0 0 -3 -3 0zm0 -5l0 3 3 0 0 -3 -3 0zm0 -10l0 3 3 0 0 -3 -3 0zm0 -4l0 2 3 0 0 -2 -3 0zm0 -5l0 3 3 0 0 -3 -3 0zm0 -5l0 3 3 0 0 -3 -3 0zm0 -5l0 3 3 0 0 -3 -3 0zm0 -5l0 3 3 0 0 -3 -3 0zm0 -4l0 2 3 0 0 -2 -3 0zm0 -5l0 3 3 0 0 -3 -3 0zm0 -10l0 3 3 0 0 -3 -3 0zm0 -5l0 3 3 0 0 -3 -3 0 0 0zm0 -9l0 3 3 0 0 -3 -3 0zm0 -5l0 3 3 0 0 -3 -3 0zm0 -5l0 3 3 0 0 -3 -3 0zm0 -5l0 3 3 0 0 -3 -3 0zm0 -9l0 3 3 0 0 -3 -3 0zm0 -5l0 3 3 0 0 -3 -3 0 0 0zm0 -5l0 3 3 0 0 -3 -3 0zm0 -5l0 3 3 0 0 -3 -3 0zm0 -5l0 3 3 0 0 -3 -3 0zm0 -4l0 3 3 0 0 -3 -3 0zm0 -5l0 3 3 0 0 -3 -3 0 0 0zm175 437l0 3 3 0 0 -3 -3 0zm0 -9l0 2 3 0 0 -2 -3 0zm0 -10l0 3 3 0 0 -3 -3 0zm0 -5l0 3 3 0 0 -3 -3 0zm0 -5l0 3 3 0 0 -3 -3 0zm0 -9l0 3 3 0 0 -3 -3 0zm0 -5l0 3 3 0 0 -3 -3 0zm0 -5l0 3 3 0 0 -3 -3 0zm0 -5l0 3 3 0 0 -3 -3 0zm0 -5l0 3 3 0 0 -3 -3 0zm0 -9l0 3 3 0 0 -3 -3 0zm0 -5l0 3 3 0 0 -3 -3 0zm0 -5l0 3 3 0 0 -3 -3 0zm0 -14l0 3 3 0 0 -3 -3 0zm0 -15l0 3 3 0 0 -3 -3 0zm0 -4l0 3 3 0 0 -3 -3 0zm36 81l0 3 3 0 0 -3 -3 0zm0 -9l0 3 3 0 0 -3 -3 0zm0 -5l0 3 3 0 0 -3 -3 0zm0 -10l0 3 3 0 0 -3 -3 0zm0 -5l0 3 3 0 0 -3 -3 0zm0 -4l0 3 3 0 0 -3 -3 0zm0 -5l0 3 3 0 0 -3 -3 0zm0 -10l0 3 3 0 0 -3 -3 0zm0 -14l0 3 3 0 0 -3 -3 0zm0 -10l0 3 3 0 0 -3 -3 0zm0 -9l0 3 3 0 0 -3 -3 0zm0 -5l0 3 3 0 0 -3 -3 0zm0 -5l0 3 3 0 0 -3 -3 0zm0 -5l0 3 3 0 0 -3 -3 0zm0 -9l0 2 3 0 0 -2 -3 0zm125 19l0 3 3 0 0 -3 -3 0zm0 115l0 3 3 0 0 -3 -3 0zm0 -9l0 2 3 0 0 -2 -3 0zm0 -20l0 3 3 0 0 -3 -3 0zm0 -5l0 3 3 0 0 -3 -3 0zm0 -4l0 3 3 0 0 -3 -3 0zm0 -5l0 3 3 0 0 -3 -3 0zm0 -10l0 3 3 0 0 -3 -3 0zm0 -5l0 3 3 0 0 -3 -3 0zm0 -4l0 3 3 0 0 -3 -3 0zm0 -5l0 3 3 0 0 -3 -3 0zm0 -5l0 3 3 0 0 -3 -3 0zm0 -5l0 3 3 0 0 -3 -3 0zm0 -5l0 3 3 0 0 -3 -3 0zm0 -4l0 3 3 0 0 -3 -3 0zm0 -10l0 3 3 0 0 -3 -3 0zm0 -5l0 3 3 0 0 -3 -3 0zm0 -5l0 3 3 0 0 -3 -3 0zm5 15l0 3 3 0 0 -3 -3 0zm0 -5l0 3 3 0 0 -3 -3 0zm0 -10l0 3 3 0 0 -3 -3 0zm0 -4l0 3 3 0 0 -3 -3 0zm0 -5l0 3 3 0 0 -3 -3 0zm0 -10l0 3 3 0 0 -3 -3 0zm0 -5l0 3 3 0 0 -3 -3 0zm0 -4l0 2 3 0 0 -2 -3 0zm0 -5l0 3 3 0 0 -3 -3 0zm0 -5l0 3 3 0 0 -3 -3 0zm0 -10l0 3 3 0 0 -3 -3 0zm0 -4l0 2 3 0 0 -2 -3 0zm0 -5l0 3 3 0 0 -3 -3 0zm0 -5l0 3 3 0 0 -3 -3 0zm0 -10l0 3 3 0 0 -3 -3 0zm0 -4l0 2 3 0 0 -2 -3 0zm0 -10l0 3 3 0 0 -3 -3 0zm0 -5l0 3 3 0 0 -3 -3 0zm0 -5l0 3 3 0 0 -3 -3 0zm0 -5l0 3 3 0 0 -3 -3 0zm-171 178l0 3 3 0 0 -3 -3 0zm0 -5l0 3 3 0 0 -3 -3 0zm0 -9l0 3 3 0 0 -3 -3 0zm0 -15l0 3 3 0 0 -3 -3 0zm0 -4l0 3 3 0 0 -3 -3 0zm0 -5l0 3 3 0 0 -3 -3 0zm0 -10l0 3 3 0 0 -3 -3 0zm0 -5l0 3 3 0 0 -3 -3 0zm0 -4l0 3 3 0 0 -3 -3 0zm0 -5l0 3 3 0 0 -3 -3 0zm0 -10l0 3 3 0 0 -3 -3 0zm0 -5l0 3 3 0 0 -3 -3 0zm0 -9l0 3 3 0 0 -3 -3 0zm0 -5l0 3 3 0 0 -3 -3 0zm0 -5l0 3 3 0 0 -3 -3 0z"/>
 </g>
</svg>
